<?xml version="1.0" encoding="UTF-8" standalone="no"?>
<!-- Created with Inkscape (http://www.inkscape.org/) -->

<svg
   xmlns:dc="http://purl.org/dc/elements/1.1/"
   xmlns:cc="http://creativecommons.org/ns#"
   xmlns:rdf="http://www.w3.org/1999/02/22-rdf-syntax-ns#"
   xmlns:svg="http://www.w3.org/2000/svg"
   xmlns="http://www.w3.org/2000/svg"
   xmlns:xlink="http://www.w3.org/1999/xlink"
   xmlns:sodipodi="http://sodipodi.sourceforge.net/DTD/sodipodi-0.dtd"
   xmlns:inkscape="http://www.inkscape.org/namespaces/inkscape"
   width="72.590073mm"
   height="30.148436mm"
   viewBox="0 0 72.590072 30.148436"
   version="1.1"
   id="svg8"
   inkscape:version="0.92.3 (2405546, 2018-03-11)"
   sodipodi:docname="Bellows_long_up_right.svg">
  <defs
     id="defs2">
    <linearGradient
       id="linearGradient31772">
      <stop
         style="stop-color:#677a84;stop-opacity:1;"
         offset="0"
         id="stop31774" />
      <stop
         id="stop31780"
         offset="0.1360594"
         style="stop-color:#e0f3fd;stop-opacity:1;" />
      <stop
         style="stop-color:#677a84;stop-opacity:1;"
         offset="1"
         id="stop31776" />
    </linearGradient>
    <inkscape:path-effect
       effect="skeletal"
       id="path-effect19560"
       is_visible="true"
       pattern="m 1.91383,17.14241 h -0.0184 c 0.003,0 0.006,-0.006 0.006,-0.0132 V 2.3090399 c 0,-0.008 -0.003,-0.0133 -0.006,-0.0133 h 0.0161 l -0.80576,-1.99579 -0.80576999,1.99579 h 0.006 c -0.003,0 -0.006,0.006 -0.006,0.0133 V 17.12921 c 0,0.008 0.003,0.0132 0.006,0.0132 h -0.004 L 1.10776,19.1382 Z"
       copytype="repeated"
       prop_scale="1"
       scale_y_rel="false"
       spacing="0"
       normal_offset="0"
       tang_offset="0"
       prop_units="false"
       vertical_pattern="false"
       fuse_tolerance="0" />
    <linearGradient
       id="linearGradient6016">
      <stop
         style="stop-color:#505050;stop-opacity:1;"
         offset="0"
         id="stop6018" />
      <stop
         id="stop6024"
         offset="0.77456307"
         style="stop-color:#e6e6e6;stop-opacity:1;" />
      <stop
         style="stop-color:#505050;stop-opacity:1;"
         offset="1"
         id="stop6020" />
    </linearGradient>
    <linearGradient
       inkscape:collect="always"
       xlink:href="#linearGradient31772"
       id="linearGradient23619"
       x1="1021.1036"
       y1="-15.161533"
       x2="1088.9305"
       y2="-15.161533"
       gradientUnits="userSpaceOnUse" />
    <inkscape:path-effect
       effect="skeletal"
       id="path-effect23587"
       is_visible="true"
       pattern="m 1.913602,17.14241 h -0.018 c 0,0 0.01,-0.006 0.01,-0.0132 V 2.3090399 c 0,-0.008 0,-0.0133 -0.01,-0.0133 h 0.016 L 1.105802,0.29995 0.30010198,2.29574 h 0.01 c 0,0 -0.01,0.006 -0.01,0.0133 v 14.82017 c 0,0.008 0,0.0132 0.01,0.0132 v 0 L 1.1158019,19.1382 Z"
       copytype="repeated"
       prop_scale="1"
       scale_y_rel="false"
       spacing="0"
       normal_offset="0"
       tang_offset="0"
       prop_units="false"
       vertical_pattern="false"
       fuse_tolerance="0" />
    <linearGradient
       inkscape:collect="always"
       xlink:href="#linearGradient6016"
       id="linearGradient16111-9"
       gradientUnits="userSpaceOnUse"
       gradientTransform="translate(-163.30391,-1225.4432)"
       x1="140.91965"
       y1="134.70966"
       x2="161.30965"
       y2="134.70966" />
    <linearGradient
       inkscape:collect="always"
       xlink:href="#linearGradient6016"
       id="linearGradient16111-9-0"
       gradientUnits="userSpaceOnUse"
       gradientTransform="translate(-1181.9532,-105.06695)"
       x1="140.91965"
       y1="134.70966"
       x2="161.30965"
       y2="134.70966" />
  </defs>
  <sodipodi:namedview
     id="base"
     pagecolor="#ffffff"
     bordercolor="#666666"
     borderopacity="1.0"
     inkscape:pageopacity="0.0"
     inkscape:pageshadow="2"
     inkscape:zoom="0.35"
     inkscape:cx="-265.21621"
     inkscape:cy="-127.85012"
     inkscape:document-units="mm"
     inkscape:current-layer="layer1"
     showgrid="false"
     fit-margin-top="0"
     fit-margin-left="0"
     fit-margin-right="0"
     fit-margin-bottom="0"
     inkscape:window-width="2560"
     inkscape:window-height="1418"
     inkscape:window-x="-8"
     inkscape:window-y="124"
     inkscape:window-maximized="1" />
  <metadata
     id="metadata5">
    <rdf:RDF>
      <cc:Work
         rdf:about="">
        <dc:format>image/svg+xml</dc:format>
        <dc:type
           rdf:resource="http://purl.org/dc/dcmitype/StillImage" />
        <dc:title></dc:title>
      </cc:Work>
    </rdf:RDF>
  </metadata>
  <g
     inkscape:label="Layer 1"
     inkscape:groupmode="layer"
     id="layer1"
     transform="translate(-43.335481,-84.857886)">
    <g
       transform="translate(-977.30802,117.00058)"
       style="opacity:1"
       id="g23676">
      <path
         inkscape:original-d="m 1030.824,-27.797361 c -0.1564,16.310621 13.751,15.697872 13.751,15.697872 h 10.3245 34.098"
         inkscape:path-effect="#path-effect23587"
         sodipodi:nodetypes="cccc"
         inkscape:connector-curvature="0"
         id="path23583"
         d="m 1023.4062,-25.80053 c -4e-4,-0.0078 -7e-4,-0.01566 -0,-0.02348 0,0 0.01,0.01274 0.014,0.01237 l 14.8736,-0.752009 c 0.01,-4.06e-4 0.013,-6.75e-4 0.013,-0.0077 2e-4,0.0038 5e-4,0.0075 7e-4,0.01125 0.6558,-0.222641 1.3133,-0.426594 1.9697,-0.613894 -0.6783,-0.161326 -1.3553,-0.346296 -2.0288,-0.552186 10e-5,0.0025 2e-4,0.005 3e-4,0.0074 0,0 -0.01,-0.0075 -0.014,-0.0076 l -14.8195,-0.142101 c -0.01,-7.7e-5 -0.013,-1.28e-4 -0.014,0.01244 -0.6785,0.331536 -1.353,0.685187 -2.0206,1.062986 0.667,0.347772 1.3432,0.679477 2.0263,0.992451 z m 0.1871,2.136515 c -0,-0.0081 -0,-0.0161 -0,-0.02415 0,0 0.01,0.01269 0.015,0.01182 l 14.7758,-1.791834 c 0.01,-9.67e-4 0.013,-0.0016 0.013,-0.0081 4e-4,0.0035 7e-4,0.007 0,0.01044 0.6452,-0.25575 1.2962,-0.490329 1.9501,-0.70577 -0.6787,-0.102418 -1.3589,-0.232343 -2.0384,-0.387053 10e-5,0.0023 3e-4,0.0047 4e-4,0.007 0,0 -0.01,-0.0067 -0.014,-0.0063 l -14.8735,0.756815 c -0.01,4.08e-4 -0.013,6.73e-4 -0.013,0.01372 -0.6519,0.384695 -1.2957,0.793989 -1.9285,1.229915 0.6994,0.318625 1.4051,0.617365 2.1151,0.893553 z m 0.3844,2.188422 c -0,-0.0082 -0,-0.01643 -0.01,-0.02464 0,0 0.01,0.01249 0.016,0.01104 l 14.5256,-2.973271 c 0.01,-0.0016 0.013,-0.0027 0.012,-0.0086 6e-4,0.0032 0,0.0063 0,0.0095 0.6253,-0.292453 1.2604,-0.561251 1.9025,-0.808427 -0.6749,-0.03439 -1.3541,-0.100149 -2.0353,-0.194559 2e-4,0.0022 5e-4,0.0043 7e-4,0.0065 0,0 -0.01,-0.0058 -0.014,-0.0049 l -14.7749,1.797342 c -0.01,9.7e-4 -0.013,0.0016 -0.011,0.01502 -0.6158,0.441446 -1.2195,0.909976 -1.8082,1.407623 0.7274,0.280386 1.4585,0.537068 2.1909,0.767378 z m 0.5973,2.223727 c -0,-0.0083 -0.01,-0.01663 -0.01,-0.02494 0,0 0.01,0.01212 0.017,0.01003 l 14.1229,-4.29632 c 0.01,-0.0023 0.013,-0.0039 0.011,-0.0091 8e-4,0.0028 0,0.0056 0,0.0083 0.5959,-0.332751 1.2057,-0.63936 1.8265,-0.921863 -0.6668,0.04276 -1.3406,0.05028 -2.0193,0.02529 4e-4,0.002 7e-4,0.0039 0,0.0059 0,0 -0.01,-0.0047 -0.014,-0.0032 l -14.5239,2.979482 c -0.01,0.0016 -0.013,0.0027 -0.01,0.01634 -0.5704,0.501792 -1.1246,1.033152 -1.6597,1.596113 0.7512,0.233055 1.5032,0.438585 2.2539,0.613924 z m 0.8254,2.242432 c -0,-0.0084 -0.01,-0.01671 -0.011,-0.02506 0,0 0.011,0.01159 0.018,0.0088 l 13.5677,-5.76098 c 0.01,-0.0031 0.012,-0.0052 0.01,-0.0096 0,0.0023 0,0.0047 0,0.007 0.5571,-0.37664 1.1322,-0.724656 1.7223,-1.046079 -0.6544,0.129028 -1.3186,0.218956 -1.9904,0.272507 5e-4,0.0017 9e-4,0.0035 0,0.0052 0,0 -0.01,-0.0035 -0.014,-0.0013 l -14.1204,4.303232 c -0.01,0.0023 -0.013,0.0038 -0.01,0.01769 -0.5155,0.565732 -1.0108,1.163515 -1.4829,1.795384 0.7706,0.17663 1.5393,0.321915 2.3039,0.433191 z m 1.0702,2.244811 c -0,-0.0066 -0.01,-0.01329 -0.012,-0.01995 -9e-4,-0.0018 -0,-0.0035 -0,-0.0053 0,0 0,0.0019 0.01,0.0039 0,0 0,0 0,0 0,0 0,0 0,0 0,0.0028 0.01,0.0056 0.014,0.0035 l 12.8591,-7.367495 c 0.01,-0.0034 0.01,-0.0058 0.01,-0.0085 0,0 0,0 0,0 0,0 0,0 0,0 0,0 0,0 0,0 0,0 0,0 0,0 0,0 0,0 0,0 0,0 0,0 0,0 0,0 0,0 0,0 0,0 0,0 0,0 0,0 0,0 0,0 0,0 0,0 0,0 0,0 0,0 0,0 0,0 0,0 0,0 0,0 0,0 0,0 0,0 0,0 0,0 0,0 0,0 0,0 0,0 0,0 0,0 0,0 0,0 0,0 0,0 0,0 0,0 0,0 0,0 0,0 0,0 0,0 0,0 0,0 0,0 0,0 0,0 0,0 0,0 0,0 0,0 0,0 0,0 0,0 0,0 0,0 0,0 0,0 0,0 0,0 0,0 0,0 0,0 0,0 0,0 0,0 0,0 0,0 0,0 0,0 0,0 0,0 0,0 0,0 0,0 0,0 0,0 0,0 0,0 0,0 0,0 0,0 0,0 0,0 0,0 0,0 0,0 0,0 0,0 0,0 0,0 0,0 0,0 0,0 0,0 0,0 0,0 0,0 0,0 0,0 0,0 0,0 0,0 0,0 0,0 0,0 0,0 0,0 0,0 0,0 0,0 0,0 -1e-4,-4.87e-4 -3e-4,-9.85e-4 -7e-4,-0.0015 3e-4,4.44e-4 7e-4,8.89e-4 10e-4,0.0013 7e-4,0.0013 0,0.0027 0,0.004 0.01,-0.0063 0.016,-0.01264 0.024,-0.01895 0.5019,-0.416794 1.0251,-0.803441 1.5668,-1.161884 -0.6376,0.224417 -1.288,0.40587 -1.9487,0.547081 6e-4,0.0015 0,0.0029 0,0.0044 0,0 -0.01,-0.002 -0.014,7.96e-4 l -13.5645,5.768595 c -0.01,0.0031 -0.012,0.0051 -0.01,0.01906 -0.4512,0.633264 -0.8781,1.301065 -1.2778,2.005435 0.7718,0.109139 1.5391,0.184352 2.2998,0.223113 0.014,7.95e-4 0.028,0.0016 0.042,0.0023 z m 1.4492,2.165808 c -0.01,-0.0077 -0.012,-0.01531 -0.018,-0.02297 0,0 0.015,0.0091 0.02,0.0047 l 11.7523,-9.01559 c 0.01,-0.0049 0.01,-0.0081 0.01,-0.01119 0,0.0017 0,0.0033 0,0.005 0.4635,-0.488201 0.9572,-0.943108 1.4785,-1.361225 -0.585,0.320018 -1.192,0.602971 -1.8177,0.846162 6e-4,0.0011 0,0.0022 0,0.0033 0,0 -0.01,-2.86e-4 -0.013,0.0033 l -12.854,7.376123 c -0.01,0.004 -0.012,0.0066 -0,0.02064 -0.3578,0.709337 -0.6811,1.449182 -0.9675,2.216037 0.8167,0.02392 1.6206,0.0016 2.4086,-0.0643 z m 1.7068,1.94323 c -0.01,-0.0068 -0.014,-0.01358 -0.02,-0.02038 0,0 0.016,0.0071 0.021,0.002 l 10.4692,-10.47924 c 0.01,-0.0057 0.01,-0.0094 0.01,-0.01221 0,0.0015 0,0.003 0,0.0045 0.3941,-0.545985 0.8215,-1.063608 1.2796,-1.549375 -0.5408,0.39198 -1.1085,0.750231 -1.6996,1.072057 8e-4,0.001 0,0.0021 0,0.0031 0,0 -0.01,5.56e-4 -0.013,0.005 l -11.7464,9.023301 c -0.01,0.0049 -0.011,0.008 -6e-4,0.02079 -0.2635,0.747757 -0.4894,1.521088 -0.6753,2.316498 0.8093,-0.08664 1.6012,-0.216191 2.3723,-0.386017 z m 1.9444,1.7014492 c -0.01,-0.00585 -0.015,-0.011713 -0.023,-0.017577 0,0 0.016,0.00501 0.021,-7.038e-4 l 9.0097,-11.7584461 c 0,-0.0063 0.01,-0.01055 0,-0.01295 0,0.0013 0,0.0026 0.01,0.0038 0.3201,-0.592291 0.6766,-1.161155 1.067,-1.703095 -0.4854,0.458858 -1.0025,0.887324 -1.5477,1.282702 9e-4,9.35e-4 0,0.0019 0,0.0028 0,0 -0.01,0.0014 -0.012,0.0066 l -10.4624,10.486037 c -0.01,0.0057 -0.01,0.0093 0,0.02065 -0.1646,0.7747006 -0.2885,1.570043 -0.3692,2.3825323 0.7907,-0.1920713 1.5592,-0.4237518 2.3023,-0.6923921 z m 2.1618,1.4404672 c -0.01,-0.00485 -0.017,-0.0097 -0.025,-0.01456 0,0 0.017,0.00289 0.021,-0.00335 l 7.3738,-12.8532085 c 0,-0.0069 0.01,-0.01153 0,-0.0134 0,9.95e-4 0,0.002 0.01,0.003 0.2415,-0.627123 0.5225,-1.235751 0.8405,-1.822388 -0.4187,0.520654 -0.8739,1.014252 -1.362,1.478098 10e-4,7.97e-4 0,0.0016 0,0.0024 0,0 -0.01,0.0024 -0.011,0.0082 l -9.002,11.764329 c -0,0.00635 -0.01,0.010483 0,0.020229 -0.061,0.7901683 -0.078,1.5960463 -0.049,2.4141386 0.7609,-0.2923928 1.4949,-0.6210835 2.1986,-0.9834226 z m 2.2613,1.1118012 c -0.01,-0.00358 -0.017,-0.00717 -0.025,-0.010762 0,0 0.016,4.592e-4 0.019,-0.00618 l 5.7455,-13.6527015 c 0,-0.0074 0.01,-0.01225 9e-4,-0.01403 0,9.48e-4 0,0.0019 0.01,0.0028 0.1427,-0.660623 0.3251,-1.308924 0.5483,-1.941482 -0.2571,0.396115 -0.5298,0.782619 -0.8184,1.158239 -0.1166,0.159264 -0.2366,0.316321 -0.3599,0.4711 0,6.2e-4 0,0.0012 0,0.0019 0,0 -0.01,0.0033 -0.01,0.0097 l -7.3652,12.8581779 c -0,0.00694 -0.01,0.011458 0.01,0.019526 0.013,0.2232858 0.03,0.4474236 0.051,0.6723357 0.045,0.5672984 0.11,1.1382673 0.1951,1.7116361 0.7005,-0.3980543 1.3675,-0.8259837 2.0014,-1.2802444 z m 2.3056,0.8248941 c -0.01,-0.00256 -0.017,-0.00512 -0.026,-0.00769 0,0 0.016,-0.00148 0.018,-0.0084 l 4.1765,-14.2247564 c 0,-0.0077 0,-0.01276 -0,-0.01413 0,7.31e-4 0.01,0.0015 0.01,0.0022 0.058,-0.675305 0.1545,-1.342791 0.2895,-1.999037 -0.3093,0.597722 -0.65,1.181078 -1.0225,1.746453 0,5.91e-4 0,0.0012 0,0.0018 0,0 -0.01,0.0038 -0.01,0.01048 l -5.7377,13.6560545 c -0,0.00737 -0.01,0.012168 0.01,0.018127 0.123,0.7732268 0.2838,1.5500163 0.4812,2.3269474 0.6367,-0.4788202 1.24,-0.9826738 1.8102,-1.5080174 z m 2.3348,0.55147 c -0.01,-0.00155 -0.017,-0.0031 -0.026,-0.00466 0,0 0.016,-0.00331 0.017,-0.010399 l 2.6503,-14.5872676 c 0,-0.0079 0,-0.01309 -0,-0.01408 0,5.28e-4 0.01,0.0011 0.01,0.0016 -0.02,-0.681359 -0,-1.359402 0.048,-2.030709 -0.2529,0.624532 -0.5371,1.239588 -0.8531,1.841555 0,4.55e-4 0,9.1e-4 0,0.0014 0,0 -0.01,0.0044 -0.01,0.0114 l -4.1688,14.22707 c -0,0.00768 -0,0.012677 0.011,0.016927 0.2002,0.7529051 0.4362,1.5048703 0.7069,2.2524744 0.5712,-0.549409 1.1089,-1.1190101 1.6135,-1.7052595 z m 2.3918,0.3008646 c -0.01,-6.614e-4 -0.018,-0.00133 -0.028,-0.002 0,0 0.016,-0.00486 0.016,-0.012049 l 1.0706,-14.7806603 c 6e-4,-0.008 10e-4,-0.01326 -0,-0.0136 0,1.81e-4 0,3.6e-4 0.01,5.37e-4 -0.073,-0.672417 -0.1151,-1.346856 -0.132,-2.019844 -0.085,0.295224 -0.1799,0.58888 -0.2831,0.880815 -0.1213,0.345805 -0.252,0.689769 -0.392,1.03131 0,3.29e-4 0,6.58e-4 0.01,9.86e-4 0,0 -0.01,0.0049 -0.01,0.01211 l -2.6429,14.588543 c -0,0.00787 -0,0.012999 0.012,0.015569 0.1443,0.3845077 0.2981,0.7674801 0.4613,1.1484047 0.1428,0.3378429 0.2951,0.6745955 0.4577,1.0098998 0.5115,-0.6052772 1,-1.2258137 1.4583,-1.8600149 z m 2.2297,0.047403 -0.018,-2e-6 c 0,0 0.01,-0.006 0.01,-0.013197 l -0.1699,-14.8180098 c -10e-5,-0.008 -10e-5,-0.0133 -0.01,-0.0133 l 0.016,-2e-6 c -0.2053,-0.49028 -0.411,-0.980556 -0.617,-1.470827 -10e-5,2e-6 -10e-5,2e-6 -10e-5,2e-6 -0,-0.0094 -0.01,-0.01876 -0.012,-0.02815 0,0 0,0 0,0 -0.011,-0.02543 -0.022,-0.05093 -0.033,-0.07646 0,-1e-6 0,-1e-6 0,-1e-6 -2e-4,-0.09841 -0.016,-0.196515 -0.048,-0.294019 0,0 0,0 0,0 0,-0.0414 0,-0.08282 0.01,-0.124259 0.014,0.326461 -0.012,0.651828 -0.07,0.976522 -0.06,0.33736 -0.134,0.672962 -0.22,1.006589 0,1.1e-4 0,2.2e-4 0,3.28e-4 0,0 -0,0.0057 -0.01,0.01294 l -1.062,14.7812779 c -5e-4,0.00798 -9e-4,0.013171 0.014,0.014263 0.1829,0.3445194 0.3777,0.6869694 0.5855,1.0269235 0.2095,0.3438416 0.4533,0.6841515 0.7397,1.0191106 0.028,-0.033498 0.057,-0.067049 0.086,-0.100654 0,-10e-8 0,-10e-8 0,-10e-8 0.047,-0.09882 0.1105,-0.1988263 0.1896,-0.3001548 0,-10e-8 0,-10e-8 0,-10e-8 0.01,-0.026299 0.02,-0.052633 0.03,-0.079031 0,-0.00976 0.01,-0.019515 0.011,-0.029305 0,-10e-8 0,-2e-7 0,-2e-7 0.1906,-0.4968582 0.3815,-0.993718 0.5727,-1.490582 z m 1.5994,1.721e-4 -0.018,-1.9e-6 c 0,0 0.01,-0.006 0.01,-0.013197 l -0.1417,-14.8183537 c -10e-5,-0.008 -2e-4,-0.0133 -0.01,-0.0133 l 0.016,-2e-6 c -0.2773,-0.665153 -0.5552,-1.330298 -0.8338,-1.995436 -0.2646,0.66521 -0.5285,1.330413 -0.7918,1.995608 l 0.01,-1e-6 c 0,0 -0.01,0.006 -0.01,0.0133 l 0.1697,14.8180117 c 1e-4,0.008 2e-4,0.013198 0.01,0.013199 0.2738,0.6651952 0.547,1.3303981 0.8196,1.9956087 0.256,-0.6651382 0.5126,-1.3302841 0.7699,-1.9954376 z m 1.5993,1.722e-4 -0.018,-1.9e-6 c 0,0 0.01,-0.006 0.01,-0.013198 l -0.1136,-14.8186976 c 0,-0.008 -10e-5,-0.0133 -0.01,-0.0133 l 0.016,-2e-6 c -0.2761,-0.665169 -0.5527,-1.330329 -0.83,-1.995483 -0.2659,0.665226 -0.531,1.330445 -0.7956,1.995655 l 0.01,-1e-6 c 0,0 -0.01,0.006 -0.01,0.0133 l 0.1416,14.8183555 c 10e-5,0.008 2e-4,0.013198 0.01,0.013199 0.2725,0.6652106 0.5445,1.3304289 0.8158,1.995655 0.2572,-0.6651537 0.5151,-1.330315 0.7736,-1.9954839 z m 1.5994,1.722e-4 -0.018,-1.9e-6 c 0,0 0.01,-0.006 0.01,-0.013198 l -0.085,-14.8190414 c -10e-5,-0.008 -10e-5,-0.0133 -0.01,-0.0133 l 0.016,-2e-6 c -0.2748,-0.665184 -0.5502,-1.33036 -0.8263,-1.995529 -0.267,0.665241 -0.5335,1.330475 -0.7993,1.995701 l 0.01,-1e-6 c 0,0 -0.01,0.006 -0.01,0.0133 l 0.1134,14.8186984 c 10e-5,0.008 10e-5,0.013199 0.01,0.0132 0.2713,0.665226 0.5419,1.3304598 0.812,1.9957012 0.2585,-0.665169 0.5176,-1.3303458 0.7774,-1.9955301 z m 1.5994,1.722e-4 -0.018,-2e-6 c 0,0 0.01,-0.006 0.01,-0.013198 l -0.057,-14.8193843 c 0,-0.008 0,-0.0133 -0.01,-0.0133 l 0.016,-1e-6 c -0.2735,-0.6652 -0.5476,-1.330392 -0.8224,-1.995576 -0.2683,0.665257 -0.536,1.330506 -0.8031,1.995748 l 0.01,-1e-6 c 0,0 -0.01,0.006 -0.01,0.0133 l 0.085,14.8190423 c 10e-5,0.008 10e-5,0.013199 0.01,0.0132 0.2701,0.6652414 0.5395,1.3304906 0.8083,1.9957475 0.2597,-0.6651845 0.5202,-1.3303767 0.7812,-1.9955764 z m 1.5994,1.721e-4 -0.018,-1.9e-6 c 0,0 0.01,-0.006 0.01,-0.013198 l -0.029,-14.8197282 c 0,-0.008 0,-0.0133 -0.01,-0.0133 l 0.016,-2e-6 c -0.2722,-0.665214 -0.5451,-1.330422 -0.8186,-1.995621 -0.2696,0.665272 -0.5386,1.330537 -0.8069,1.995794 l 0.01,-2e-6 c 0,0 -0.01,0.006 -0.01,0.0133 l 0.057,14.8193862 c 0,0.008 0,0.013199 0.01,0.0132 0.2688,0.6652569 0.5369,1.3305216 0.8044,1.9957939 0.2611,-0.6652 0.5228,-1.3304075 0.7851,-1.9956228 z m 1.5994,1.722e-4 -0.018,-1.9e-6 c 0,0 0.01,-0.006 0.01,-0.013199 l -9e-4,-14.8200721 c 0,-0.008 0,-0.0133 -0.01,-0.0133 l 0.016,-2e-6 c -0.271,-0.66523 -0.5426,-1.330453 -0.8148,-1.995667 -0.2709,0.665287 -0.5411,1.330567 -0.8108,1.995839 l 0.01,-10e-7 c 0,0 -0.01,0.006 -0.01,0.0133 l 0.029,14.81973 c 0,0.008 0,0.0132 0.01,0.013201 0.2675,0.6652724 0.5344,1.3305524 0.8006,1.9958401 0.2623,-0.6652153 0.5253,-1.3304383 0.7889,-1.995669 z m 1.613,7.1e-6 -0.018,0 c 0,0 0.01,-0.006 0.01,-0.0132 V -19.509483 c 0,-0.008 0,-0.0133 -0.01,-0.0133 l 0.016,0 c -0.2686,-0.665259 -0.5372,-1.330518 -0.8058,-1.995778 -0.2526,0.625911 -0.5053,1.251822 -0.758,1.877733 -0.016,0.03935 -0.032,0.0787 -0.048,0.118052 l 0.01,-1e-6 c 0,0 -0.01,0.006 -0.01,0.0133 l 9e-4,14.8200739 c 0,0.008 0,0.0132 0.01,0.013201 0.012,0.031093 0.025,0.062187 0.037,0.093281 0.256,0.6341676 0.512,1.2683353 0.768,1.9025031 0.266,-0.6652592 0.5319,-1.3305184 0.7978,-1.9957777 z m 1.6135,2e-6 -0.018,0 c 0,0 0.01,-0.006 0.01,-0.0132 v -14.820092 c 0,-0.008 0,-0.0133 -0.01,-0.0133 l 0.016,0 c -0.2686,-0.665259 -0.5372,-1.330519 -0.8058,-1.995778 -0.2685,0.66526 -0.5371,1.33052 -0.8057,1.99578 l 0.01,0 c 0,0 -0.01,0.006 -0.01,0.0133 v 14.820088 c 0,0.008 0,0.0132 0.01,0.0132 0.2686,0.66526 0.5372,1.3305201 0.8057,1.9957802 0.266,-0.6652593 0.5319,-1.3305187 0.7978,-1.9957782 z m 1.6135,2.1e-6 -0.018,-10e-8 c 0,0 0.01,-0.006 0.01,-0.0132 v -14.820096 c 0,-0.008 0,-0.0133 -0.01,-0.0133 l 0.016,0 c -0.2686,-0.66526 -0.5372,-1.330519 -0.8058,-1.995779 -0.2685,0.665261 -0.5371,1.330521 -0.8057,1.995781 l 0.01,0 c 0,0 -0.01,0.006 -0.01,0.0133 v 14.820092 c 0,0.008 0,0.0132 0.01,0.0132 0.2686,0.6652602 0.5372,1.3305205 0.8057,1.9957808 0.266,-0.6652595 0.5319,-1.3305191 0.7978,-1.9957787 z m 1.6135,2e-6 -0.018,0 c 0,0 0.01,-0.006 0.01,-0.0132 V -19.509489 c 0,-0.008 0,-0.0133 -0.01,-0.0133 l 0.016,0 c -0.2686,-0.66526 -0.5372,-1.33052 -0.8058,-1.995779 -0.2685,0.66526 -0.5371,1.330521 -0.8057,1.995781 l 0.01,0 c 0,0 -0.01,0.006 -0.01,0.0133 v 14.820096 c 0,0.008 0,0.0132 0.01,0.0132 0.2686,0.6652603 0.5372,1.3305208 0.8057,1.9957813 0.266,-0.6652597 0.5319,-1.3305194 0.7978,-1.9957793 z m 1.6135,2e-6 -0.018,0 c 0,0 0.01,-0.006 0.01,-0.0132 V -19.509491 c 0,-0.008 0,-0.0133 -0.01,-0.0133 l 0.016,0 c -0.2686,-0.66526 -0.5372,-1.33052 -0.8058,-1.99578 -0.2685,0.665261 -0.5371,1.330521 -0.8057,1.995782 l 0.01,0 c 0,0 -0.01,0.006 -0.01,0.0133 v 14.8201001 c 0,0.008 0,0.0132 0.01,0.0132 0.2686,0.6652606 0.5372,1.3305212 0.8057,1.9957819 0.266,-0.6652599 0.5319,-1.3305198 0.7978,-1.9957799 z m 1.6135,2.1e-6 -0.018,0 c 0,0 0.01,-0.006 0.01,-0.0132 V -19.509493 c 0,-0.008 0,-0.0133 -0.01,-0.0133 l 0.016,0 c -0.2686,-0.66526 -0.5372,-1.33052 -0.8058,-1.99578 -0.2685,0.66526 -0.5371,1.330521 -0.8057,1.995782 l 0.01,0 c 0,0 -0.01,0.006 -0.01,0.0133 v 14.8201041 c 0,0.008 0,0.0132 0.01,0.0132 0.2686,0.6652607 0.5372,1.3305215 0.8057,1.9957824 0.266,-0.6652601 0.5319,-1.3305202 0.7978,-1.9957804 z m 1.6135,2e-6 -0.018,0 c 0,0 0.01,-0.006 0.01,-0.0132 V -19.509495 c 0,-0.008 0,-0.0133 -0.01,-0.0133 l 0.016,0 c -0.2686,-0.665261 -0.5372,-1.330521 -0.8058,-1.995781 -0.2685,0.665261 -0.5371,1.330522 -0.8057,1.995783 l 0.01,0 c 0,0 -0.01,0.006 -0.01,0.0133 v 14.8201081 c 0,0.008 0,0.0132 0.01,0.0132 0.2686,0.6652609 0.5372,1.3305219 0.8057,1.995783 0.266,-0.6652603 0.5319,-1.3305206 0.7978,-1.995781 z m 1.6135,2.1e-6 -0.018,-1e-7 c 0,0 0.01,-0.006 0.01,-0.0132 V -19.509497 c 0,-0.008 0,-0.0133 -0.01,-0.0133 l 0.016,0 c -0.2686,-0.665261 -0.5372,-1.330521 -0.8058,-1.995782 -0.2685,0.665262 -0.5371,1.330523 -0.8057,1.995784 l 0.01,0 c 0,0 -0.01,0.006 -0.01,0.0133 v 14.8201122 c 0,0.008 0,0.0132 0.01,0.0132 0.2686,0.6652611 0.5372,1.3305223 0.8057,1.9957836 0.266,-0.6652604 0.5319,-1.3305209 0.7978,-1.9957815 z m 1.6135,2e-6 -0.018,0 c 0,0 0.01,-0.006 0.01,-0.0132 V -19.509499 c 0,-0.008 0,-0.0133 -0.01,-0.0133 l 0.016,0 c -0.2686,-0.665261 -0.5372,-1.330522 -0.8058,-1.995782 -0.2685,0.665261 -0.5371,1.330523 -0.8057,1.995784 l 0.01,0 c 0,0 -0.01,0.006 -0.01,0.0133 v 14.8201162 c 0,0.008 0,0.0132 0.01,0.0132 0.2686,0.6652612 0.5372,1.3305226 0.8057,1.9957841 0.266,-0.6652606 0.5319,-1.3305213 0.7978,-1.9957821 z m 1.6135,2e-6 -0.018,0 c 0,0 0.01,-0.006 0.01,-0.0132 V -19.509501 c 0,-0.008 0,-0.0133 -0.01,-0.0133 l 0.016,0 c -0.2686,-0.665261 -0.5372,-1.330522 -0.8058,-1.995783 -0.2685,0.665262 -0.5371,1.330523 -0.8057,1.995785 l 0.01,0 c 0,0 -0.01,0.006 -0.01,0.0133 v 14.8201202 c 0,0.008 0,0.0132 0.01,0.0132 0.2686,0.6652615 0.5372,1.330523 0.8057,1.9957846 0.266,-0.6652607 0.5319,-1.3305216 0.7978,-1.9957826 z m 1.6135,2.1e-6 -0.018,0 c 0,0 0.01,-0.006 0.01,-0.0132 V -19.509503 c 0,-0.008 0,-0.0133 -0.01,-0.0133 l 0.016,0 c -0.2686,-0.665261 -0.5372,-1.330522 -0.8058,-1.995783 -0.2685,0.665261 -0.5371,1.330523 -0.8057,1.995785 l 0.01,0 c 0,0 -0.01,0.006 -0.01,0.0133 v 14.8201243 c 0,0.008 0,0.0132 0.01,0.0132 0.2686,0.6652616 0.5372,1.3305233 0.8057,1.9957851 0.266,-0.6652609 0.5319,-1.330522 0.7978,-1.9957831 z m 1.6135,2e-6 -0.018,0 c 0,0 0.01,-0.006 0.01,-0.0132 V -19.509505 c 0,-0.008 0,-0.0133 -0.01,-0.0133 l 0.016,0 c -0.2686,-0.665262 -0.5372,-1.330523 -0.8058,-1.995784 -0.2685,0.665262 -0.5371,1.330524 -0.8057,1.995786 l 0.01,0 c 0,0 -0.01,0.006 -0.01,0.0133 v 14.8201283 c 0,0.008 0,0.0132 0.01,0.0132 0.2686,0.6652618 0.5372,1.3305237 0.8057,1.9957857 0.266,-0.6652611 0.5319,-1.3305224 0.7978,-1.9957837 z m 1.6135,2.1e-6 -0.018,-1e-7 c 0,0 0.01,-0.006 0.01,-0.0132 V -19.509507 c 0,-0.008 0,-0.0133 -0.01,-0.0133 l 0.016,0 c -0.2686,-0.665262 -0.5372,-1.330523 -0.8058,-1.995785 -0.2685,0.665263 -0.5371,1.330525 -0.8057,1.995787 l 0.01,0 c 0,0 -0.01,0.006 -0.01,0.0133 v 14.8201323 c 0,0.008 0,0.0132 0.01,0.0132 0.2686,0.665262 0.5372,1.3305241 0.8057,1.9957863 0.266,-0.6652613 0.5319,-1.3305227 0.7978,-1.9957842 z m 1.6135,2e-6 -0.018,0 c 0,0 0.01,-0.006 0.01,-0.0132 V -19.50951 c 0,-0.008 0,-0.0133 -0.01,-0.0133 l 0.016,0 c -0.2686,-0.665262 -0.5372,-1.330524 -0.8058,-1.995785 -0.2685,0.665262 -0.5371,1.330524 -0.8057,1.995787 l 0.01,0 c 0,0 -0.01,0.006 -0.01,0.0133 v 14.8201364 c 0,0.008 0,0.0132 0.01,0.0132 0.2686,0.6652622 0.5372,1.3305244 0.8057,1.9957868 0.266,-0.6652615 0.5319,-1.3305231 0.7978,-1.9957848 z m 1.6135,2e-6 -0.018,0 c 0,0 0.01,-0.006 0.01,-0.0132 V -19.509512 c 0,-0.008 0,-0.0133 -0.01,-0.0133 l 0.016,0 c -0.2686,-0.665261 -0.5372,-1.330523 -0.8058,-1.995785 -0.2685,0.665263 -0.5371,1.330525 -0.8057,1.995788 l 0.01,0 c 0,0 -0.01,0.006 -0.01,0.0133 v 14.8201404 c 0,0.008 0,0.0132 0.01,0.0132 0.2686,0.6652624 0.5372,1.3305248 0.8057,1.9957874 0.266,-0.6652617 0.5319,-1.3305235 0.7978,-1.9957854 z m 1.6135,2.1e-6 -0.018,0 c 0,0 0.01,-0.006 0.01,-0.0132 V -19.509514 c 0,-0.008 0,-0.0133 -0.01,-0.0133 l 0.016,0 c -0.2686,-0.665262 -0.5372,-1.330524 -0.8058,-1.995785 -0.2685,0.665262 -0.5371,1.330525 -0.8057,1.995788 l 0.01,0 c 0,0 -0.01,0.006 -0.01,0.0133 v 14.8201445 c 0,0.008 0,0.0132 0.01,0.0132 0.2686,0.6652626 0.5372,1.3305252 0.8057,1.995788 0.266,-0.6652619 0.5319,-1.3305239 0.7978,-1.9957859 z m 1.6135,2e-6 -0.018,0 c 0,0 0.01,-0.006 0.01,-0.0132 V -19.509516 c 0,-0.008 0,-0.0133 -0.01,-0.0133 l 0.016,0 c -0.2686,-0.665262 -0.5372,-1.330524 -0.8058,-1.995786 -0.2685,0.665263 -0.5371,1.330526 -0.8057,1.995789 l 0.01,0 c 0,0 -0.01,0.006 -0.01,0.0133 v 14.8201485 c 0,0.008 0,0.0132 0.01,0.0132 0.2686,0.6652627 0.5372,1.3305255 0.8057,1.9957885 0.266,-0.6652621 0.5319,-1.3305243 0.7978,-1.9957865 z m 1.6135,2.1e-6 -0.018,-1e-7 c 0,0 0.01,-0.006 0.01,-0.0132 V -19.509518 c 0,-0.008 0,-0.0133 -0.01,-0.0133 l 0.016,0 c -0.2686,-0.665262 -0.5372,-1.330524 -0.8058,-1.995787 -0.2685,0.665264 -0.5371,1.330527 -0.8057,1.995789 l 0.01,0 c 0,0 -0.01,0.006 -0.01,0.0133 v 14.8201535 c 0,0.008 0,0.0132 0.01,0.0132 0.2686,0.6652629 0.5372,1.3305259 0.8057,1.995789 0.266,-0.6652622 0.5319,-1.3305245 0.7978,-1.9957869 z m 1.6135,2e-6 -0.018,0 c 0,0 0.01,-0.006 0.01,-0.0132 V -19.50952 c 0,-0.008 0,-0.0133 -0.01,-0.0133 l 0.016,0 c -0.2686,-0.665262 -0.5372,-1.330525 -0.8058,-1.995787 -0.2685,0.665263 -0.5371,1.330526 -0.8057,1.995789 l 0.01,0 c 0,0 -0.01,0.006 -0.01,0.0133 v 14.8201576 c 0,0.008 0,0.0132 0.01,0.0132 0.2686,0.6652631 0.5372,1.3305262 0.8057,1.9957895 0.266,-0.6652624 0.5319,-1.3305249 0.7978,-1.9957875 z m 1.6135,2e-6 -0.018,0 c 0,0 0.01,-0.006 0.01,-0.0132 V -19.509522 c 0,-0.008 0,-0.0133 -0.01,-0.0133 l 0.016,0 c -0.2686,-0.665262 -0.5372,-1.330525 -0.8058,-1.995788 -0.2685,0.665264 -0.5371,1.330527 -0.8057,1.99579 l 0.01,0 c 0,0 -0.01,0.006 -0.01,0.0133 v 14.8201616 c 0,0.008 0,0.0132 0.01,0.0132 0.2686,0.6652633 0.5372,1.3305267 0.8057,1.9957901 0.266,-0.6652626 0.5319,-1.3305253 0.7978,-1.9957881 z m 1.6135,2.1e-6 -0.018,-10e-8 c 0,0 0.01,-0.006 0.01,-0.0132 V -19.509524 c 0,-0.008 0,-0.0133 -0.01,-0.0133 l 0.016,0 c -0.2686,-0.665263 -0.5372,-1.330526 -0.8058,-1.995788 -0.2685,0.665263 -0.5371,1.330527 -0.8057,1.99579 l 0.01,0 c 0,0 -0.01,0.006 -0.01,0.0133 v 14.8201656 c 0,0.008 0,0.0132 0.01,0.0132 0.2686,0.6652635 0.5372,1.3305271 0.8057,1.9957907 0.266,-0.6652628 0.5319,-1.3305257 0.7978,-1.9957886 z"
         style="fill:url(#linearGradient23619);fill-opacity:1;stroke:#000000;stroke-width:0.26458332px;stroke-linecap:butt;stroke-linejoin:miter;stroke-opacity:1" />
      <rect
         style="opacity:1;vector-effect:none;fill:url(#linearGradient16111-9);fill-opacity:1;fill-rule:evenodd;stroke:#000000;stroke-width:0.38999999;stroke-linecap:butt;stroke-linejoin:round;stroke-miterlimit:4;stroke-dasharray:none;stroke-dashoffset:0;stroke-opacity:1;marker:none;marker-start:none;marker-mid:none;marker-end:none;paint-order:markers stroke fill"
         id="rect16063-0"
         width="20"
         height="4.6100001"
         x="-22.189259"
         y="-1093.0386"
         ry="0.045196082"
         transform="rotate(90)" />
      <rect
         inkscape:transform-center-y="0.32740517"
         inkscape:transform-center-x="0.74835468"
         style="opacity:1;vector-effect:none;fill:url(#linearGradient16111-9-0);fill-opacity:1;fill-rule:evenodd;stroke:#000000;stroke-width:0.38999999;stroke-linecap:butt;stroke-linejoin:round;stroke-miterlimit:4;stroke-dasharray:none;stroke-dashoffset:0;stroke-opacity:1;marker:none;marker-start:none;marker-mid:none;marker-end:none;paint-order:markers stroke fill"
         id="rect16063-0-3"
         width="20"
         height="4.6100001"
         x="-1040.8385"
         y="27.337694"
         ry="0.045196082"
         transform="scale(-1)" />
    </g>
  </g>
</svg>
