<?xml version="1.0" encoding="UTF-8" standalone="no"?>
<!-- Created with Inkscape (http://www.inkscape.org/) -->

<svg
   xmlns:dc="http://purl.org/dc/elements/1.1/"
   xmlns:cc="http://creativecommons.org/ns#"
   xmlns:rdf="http://www.w3.org/1999/02/22-rdf-syntax-ns#"
   xmlns:svg="http://www.w3.org/2000/svg"
   xmlns="http://www.w3.org/2000/svg"
   xmlns:xlink="http://www.w3.org/1999/xlink"
   xmlns:sodipodi="http://sodipodi.sourceforge.net/DTD/sodipodi-0.dtd"
   xmlns:inkscape="http://www.inkscape.org/namespaces/inkscape"
   width="52.405624mm"
   height="32.221367mm"
   viewBox="0 0 52.405624 32.221367"
   version="1.1"
   id="svg8"
   inkscape:version="0.92.3 (2405546, 2018-03-11)"
   sodipodi:docname="Bellows_up_right.svg">
  <defs
     id="defs2">
    <linearGradient
       inkscape:collect="always"
       xlink:href="#linearGradient31772"
       id="linearGradient23345"
       x1="1035.9022"
       y1="-67.947769"
       x2="1084.8573"
       y2="-67.947769"
       gradientUnits="userSpaceOnUse" />
    <linearGradient
       id="linearGradient31772">
      <stop
         style="stop-color:#677a84;stop-opacity:1;"
         offset="0"
         id="stop31774" />
      <stop
         id="stop31780"
         offset="0.1360594"
         style="stop-color:#e0f3fd;stop-opacity:1;" />
      <stop
         style="stop-color:#677a84;stop-opacity:1;"
         offset="1"
         id="stop31776" />
    </linearGradient>
    <inkscape:path-effect
       effect="skeletal"
       id="path-effect19560"
       is_visible="true"
       pattern="m 1.91383,17.14241 h -0.0184 c 0.003,0 0.006,-0.006 0.006,-0.0132 V 2.3090399 c 0,-0.008 -0.003,-0.0133 -0.006,-0.0133 h 0.0161 l -0.80576,-1.99579 -0.80576999,1.99579 h 0.006 c -0.003,0 -0.006,0.006 -0.006,0.0133 V 17.12921 c 0,0.008 0.003,0.0132 0.006,0.0132 h -0.004 L 1.10776,19.1382 Z"
       copytype="repeated"
       prop_scale="1"
       scale_y_rel="false"
       spacing="0"
       normal_offset="0"
       tang_offset="0"
       prop_units="false"
       vertical_pattern="false"
       fuse_tolerance="0" />
    <linearGradient
       inkscape:collect="always"
       xlink:href="#linearGradient6016"
       id="linearGradient16017-5"
       gradientUnits="userSpaceOnUse"
       gradientTransform="translate(-215.16672,-1220.2147)"
       x1="140.91965"
       y1="134.70966"
       x2="161.30965"
       y2="134.70966" />
    <linearGradient
       id="linearGradient6016">
      <stop
         style="stop-color:#505050;stop-opacity:1;"
         offset="0"
         id="stop6018" />
      <stop
         id="stop6024"
         offset="0.77456307"
         style="stop-color:#e6e6e6;stop-opacity:1;" />
      <stop
         style="stop-color:#505050;stop-opacity:1;"
         offset="1"
         id="stop6020" />
    </linearGradient>
    <linearGradient
       inkscape:collect="always"
       xlink:href="#linearGradient6016"
       id="linearGradient16017-5-9"
       gradientUnits="userSpaceOnUse"
       gradientTransform="translate(-1196.909,-51.131322)"
       x1="140.91965"
       y1="134.70966"
       x2="161.30965"
       y2="134.70966" />
  </defs>
  <sodipodi:namedview
     id="base"
     pagecolor="#ffffff"
     bordercolor="#666666"
     borderopacity="1.0"
     inkscape:pageopacity="0.0"
     inkscape:pageshadow="2"
     inkscape:zoom="0.35"
     inkscape:cx="-413.8229"
     inkscape:cy="-113.39496"
     inkscape:document-units="mm"
     inkscape:current-layer="layer1"
     showgrid="false"
     fit-margin-top="0"
     fit-margin-left="0"
     fit-margin-right="0"
     fit-margin-bottom="0"
     inkscape:window-width="2560"
     inkscape:window-height="1418"
     inkscape:window-x="-8"
     inkscape:window-y="124"
     inkscape:window-maximized="1" />
  <metadata
     id="metadata5">
    <rdf:RDF>
      <cc:Work
         rdf:about="">
        <dc:format>image/svg+xml</dc:format>
        <dc:type
           rdf:resource="http://purl.org/dc/dcmitype/StillImage" />
        <dc:title></dc:title>
      </cc:Work>
    </rdf:RDF>
  </metadata>
  <g
     inkscape:label="Layer 1"
     inkscape:groupmode="layer"
     id="layer1"
     transform="translate(-82.654332,-86.60955)">
    <g
       transform="translate(-952.94498,172.68798)"
       style="opacity:1"
       id="g23402">
      <path
         inkscape:original-d="m 1045.5011,-81.354165 c 0.033,19.083074 39.8197,17.247524 39.8197,17.247524"
         inkscape:path-effect="#path-effect19560"
         sodipodi:nodetypes="cc"
         inkscape:connector-curvature="0"
         id="path19558"
         d="m 1038.2461,-78.770934 c -0,-0.0097 -0,-0.01946 -0,-0.02919 6e-4,0.0048 0.01,0.0087 0.014,0.0078 l 14.7002,-1.928908 c 0.01,-0.001 0.013,-0.0029 0.013,-0.0041 3e-4,0.0021 5e-4,0.0043 8e-4,0.0064 0.6462,-0.193874 1.3012,-0.345874 1.9603,-0.455275 -0.669,-0.02106 -1.3394,-0.08549 -2.0064,-0.192782 0,8.07e-4 10e-5,0.0016 10e-5,0.0024 -10e-5,-0.0012 -0.01,-0.0024 -0.013,-0.0024 l -14.8201,0.02563 c -0.01,1.4e-5 -0.013,0.0048 -0.013,0.0096 0,-0.0021 0,-0.0043 0,-0.0064 -0.666,0.429989 -1.318,0.902974 -1.9513,1.418231 0.6949,0.426882 1.403,0.810044 2.1196,1.14897 z m 0.5146,2.539072 c -0,-0.0096 -0.01,-0.01911 -0.01,-0.02866 0,0.0047 0.01,0.0078 0.015,0.0059 l 14.3056,-3.840795 c 0.01,-0.0021 0.013,-0.0046 0.012,-0.0057 5e-4,0.002 10e-4,0.004 0,0.006 0.6167,-0.273025 1.2482,-0.505557 1.8901,-0.696872 -0.6631,0.06895 -1.3336,0.09341 -2.007,0.07391 10e-5,7.95e-4 2e-4,0.0016 3e-4,0.0024 -10e-5,-0.0012 -0.01,-0.0016 -0.014,-6.4e-4 l -14.6982,1.943621 c -0.01,0.0011 -0.012,0.0065 -0.012,0.01125 -3e-4,-0.0021 -6e-4,-0.0042 -9e-4,-0.0063 -0.6028,0.513357 -1.1855,1.068328 -1.7433,1.66419 0.747,0.335568 1.501,0.62631 2.2575,0.871709 z m 0.86,2.477822 c -0,-0.0093 -0.01,-0.01853 -0.012,-0.02779 0,0.0045 0.01,0.0067 0.016,0.0039 l 13.6361,-5.746527 c 0.01,-0.0031 0.012,-0.0061 0.011,-0.0071 8e-4,0.0018 0,0.0035 0,0.0053 0.575,-0.34692 1.1709,-0.654727 1.7833,-0.922698 -0.6446,0.163656 -1.3029,0.281726 -1.9702,0.354726 2e-4,7.45e-4 4e-4,0.0015 6e-4,0.0022 -3e-4,-0.0011 -0.01,-6.74e-4 -0.013,0.0012 l -14.3015,3.855461 c -0.01,0.0021 -0.012,0.0081 -0.01,0.01278 -6e-4,-0.0021 -0,-0.0042 -0,-0.0062 -0.5275,0.591467 -1.0286,1.223169 -1.4988,1.894379 0.7867,0.239547 1.5742,0.433162 2.358,0.580328 z m 1.2049,2.386645 c -0.01,-0.0089 -0.01,-0.01772 -0.016,-0.02659 0,0.0043 0.01,0.0056 0.016,0.0019 l 12.6918,-7.646106 c 0.01,-0.0041 0.011,-0.0077 0.01,-0.0085 10e-4,0.0014 0,0.0029 0,0.0043 0.521,-0.415556 1.0691,-0.793381 1.6397,-1.132752 -0.6137,0.263069 -1.2472,0.479447 -1.896,0.64965 2e-4,6.58e-4 5e-4,0.0013 8e-4,0.002 -4e-4,-9.85e-4 -0.01,3.58e-4 -0.013,0.0032 l -13.6299,5.761146 c -0.01,0.0031 -0.01,0.0097 -0.01,0.01419 -8e-4,-0.002 -0,-0.004 -0,-0.006 -0.4399,0.664321 -0.8473,1.367495 -1.2176,2.108797 0.8139,0.138819 1.6226,0.230601 2.4212,0.274828 z m 1.4899,2.104326 c -0.01,-0.0075 -0.012,-0.01498 -0.018,-0.02247 0,0.0037 0.01,0.0036 0.016,-8.77e-4 l 11.5594,-9.216847 c 0.01,-0.005 0.01,-0.0093 0.01,-0.0103 0,0.0018 0,0.0036 0,0.0054 0.4448,-0.504994 0.9218,-0.977561 1.4321,-1.413219 -0.5202,0.293553 -1.0548,0.560425 -1.6035,0.797245 -0.061,0.02791 -0.1219,0.05535 -0.1832,0.08232 4e-4,5.34e-4 8e-4,0.0011 0,0.0016 -5e-4,-7.99e-4 -0.01,0.0015 -0.012,0.0053 l -12.6835,7.660677 c -0.01,0.0041 -0.01,0.01116 -0.01,0.01549 -0,-0.0019 -0,-0.0039 -0,-0.0058 -0.033,0.07075 -0.065,0.141843 -0.097,0.213289 -0.2965,0.650911 -0.5662,1.323564 -0.8101,2.014652 0.8178,0.0035 1.6165,-0.04021 2.3958,-0.126503 z m 1.6319,1.841264 c -0.01,-0.0065 -0.013,-0.01303 -0.019,-0.01955 0,0.0032 0.01,0.0021 0.016,-0.003 l 10.4519,-10.504622 c 0.01,-0.0057 0.01,-0.01047 0.01,-0.01151 0,0.0019 0,0.0037 0.01,0.0056 0.3694,-0.565246 0.7692,-1.104011 1.2004,-1.61181 -0.5559,0.381324 -1.1301,0.735974 -1.7223,1.059338 5e-4,6.76e-4 0,0.0014 0,0.002 -8e-4,-0.001 -0.01,0.0017 -0.012,0.0063 l -11.5507,9.227775 c -0.01,0.005 -0.01,0.01188 -0,0.01554 -0,-0.0016 -0,-0.0033 -0,-0.0049 -0.2577,0.74206 -0.4844,1.505252 -0.6812,2.285092 0.7902,-0.109298 1.5606,-0.259593 2.3112,-0.446269 z m 1.7429,1.586518 c -0.01,-0.0055 -0.014,-0.0111 -0.02,-0.01667 0,0.0027 0.01,7.74e-4 0.015,-0.0048 l 9.373,-11.521429 c 0,-0.0062 0.01,-0.01142 0.01,-0.01249 0,0.0019 0,0.0039 0.01,0.0058 0.3003,-0.613851 0.629,-1.207164 0.9872,-1.775457 -0.5306,0.424112 -1.0802,0.827751 -1.6484,1.206305 8e-4,6.95e-4 0,0.0014 0,0.0021 -0,-0.001 -0.01,0.0022 -0.012,0.0073 l -10.4435,10.513468 c -0.01,0.0057 -0.01,0.01255 -0,0.01573 -0,-0.0014 -0,-0.0028 -0,-0.0042 -0.1871,0.757105 -0.345,1.529397 -0.475,2.312393 0.759,-0.209412 1.4976,-0.453617 2.2158,-0.727998 z m 1.8244,1.334869 c -0.01,-0.0046 -0.014,-0.0092 -0.021,-0.01381 0,0.0023 0.01,-4.59e-4 0.014,-0.0064 l 8.3224,-12.26727 c 0,-0.0066 0.01,-0.01213 0,-0.01324 0,0.002 0.01,0.004 0.01,0.006 0.2372,-0.650807 0.5011,-1.287022 0.7926,-1.90416 -0.5018,0.45422 -1.0231,0.89417 -1.5637,1.315236 9e-4,7.18e-4 0,0.0014 0,0.0022 -0,-0.0011 -0.01,0.0025 -0.011,0.0082 l -9.3648,11.528193 c -0,0.0062 -0,0.01298 -0,0.0157 -0,-0.0012 -0,-0.0024 -0,-0.0036 -0.1226,0.760501 -0.218,1.530246 -0.2872,2.304749 0.7241,-0.296846 1.4273,-0.622281 2.1094,-0.971689 z m 1.8033,1.100515 c -0.01,-0.0039 -0.014,-0.0079 -0.021,-0.01183 0,0.0019 0.01,-0.0013 0.013,-0.0075 l 7.4429,-12.75519 c 0,-0.0069 0,-0.01253 0,-0.01361 0,0.0019 0.01,0.0039 0.01,0.0058 0.1727,-0.66961 0.3676,-1.331637 0.586,-1.985264 -0.4492,0.433542 -0.9116,0.85584 -1.388,1.266021 -0.04,0.0358 -0.08,0.07152 -0.1204,0.107157 10e-4,7.45e-4 0,0.0015 0,0.0022 -0,-0.0011 -0.01,0.0027 -0.01,0.0088 l -8.3145,12.271952 c -0,0.0066 -0,0.01318 -5e-4,0.01543 -0,-9.99e-4 -0,-0.002 -0,-0.003 -0,0.05759 -0.01,0.115207 -0.014,0.172837 -0.066,0.688186 -0.1144,1.381583 -0.1455,2.079549 0.6724,-0.368525 1.3257,-0.753355 1.9608,-1.15337 z m 1.8168,0.978437 c -0.01,-0.0035 -0.014,-0.007 -0.021,-0.0105 0,0.0017 0.01,-0.0019 0.013,-0.0083 l 6.6364,-13.181149 c 0,-0.0071 0,-0.0128 0,-0.01378 0,0.0017 0.01,0.0035 0.01,0.0052 0.1232,-0.678905 0.2669,-1.351215 0.4323,-2.016113 -0.4653,0.50027 -0.945,0.988877 -1.4401,1.464701 0,7.21e-4 0,0.0014 0,0.0022 -0,-0.0011 -0.01,0.003 -0.01,0.0093 l -7.4364,12.758682 c -0,0.0069 -0,0.01329 1e-4,0.01522 -0,-8.56e-4 -0,-0.0017 -0,-0.0026 -0.033,0.745369 -0.046,1.495923 -0.041,2.250847 0.6359,-0.410227 1.2539,-0.835165 1.855,-1.273696 z m 1.8265,0.865465 c -0.01,-0.0031 -0.014,-0.0062 -0.021,-0.0093 0,0.0015 0.01,-0.0025 0.012,-0.009 l 5.8967,-13.549535 c 0,-0.0073 0,-0.01304 0,-0.01391 0,0.0016 0.01,0.0031 0.011,0.0047 0.078,-0.686827 0.1742,-1.368046 0.2907,-2.042842 -0.4449,0.525995 -0.9029,1.041918 -1.3751,1.546651 0,6.49e-4 0,0.0013 0,0.0019 -0,-9.72e-4 -0.01,0.0034 -0.01,0.0099 l -6.6305,13.184199 c -0,0.0071 -0,0.01345 9e-4,0.01516 -0,-7.6e-4 -0,-0.0015 -0,-0.0023 0.01,0.745062 0.029,1.49432 0.069,2.24696 0.6014,-0.448134 1.1861,-0.909386 1.7551,-1.382636 z m 1.83,0.759766 c -0.01,-0.0027 -0.014,-0.0054 -0.021,-0.0081 0,0.0013 0.01,-0.003 0.011,-0.0097 l 5.2237,-13.860347 c 0,-0.0075 0,-0.01323 3e-4,-0.01403 0,0.0014 0.01,0.0028 0.012,0.0043 0.036,-0.693374 0.09,-1.382128 0.1613,-2.065448 -0.4265,0.547923 -0.8648,1.087368 -1.316,1.617215 0,5.85e-4 0,0.0012 0,0.0018 -0,-8.76e-4 -0.01,0.0037 -0.01,0.01041 l -5.8912,13.552143 c -0,0.0073 -0,0.01358 0,0.01509 -0,-6.7e-4 -0,-0.0013 -0,-0.002 0.04,0.74338 0.096,1.489969 0.1667,2.238951 0.5688,-0.482245 1.1221,-0.976015 1.661,-1.48019 z m 1.8272,0.661342 c -0.01,-0.0023 -0.014,-0.0047 -0.021,-0.007 0,0.0011 0.01,-0.0034 0.011,-0.01028 l 4.6176,-14.113584 c 0,-0.0076 0,-0.01339 -5e-4,-0.01412 0,0.0013 0.01,0.0026 0.012,0.0039 -9e-4,-0.698547 0.013,-1.393463 0.044,-2.083933 -0.41,0.566058 -0.8305,1.125228 -1.2628,1.676395 0,5.3e-4 0,0.0011 0,0.0016 -0,-7.93e-4 -0.01,0.004 -0.01,0.01085 l -5.2189,13.862512 c -0,0.0075 -0,0.01367 0,0.01498 -0,-5.86e-4 -0,-0.0012 -0,-0.0018 0.07,0.740325 0.1547,1.48287 0.2521,2.22682 0.5382,-0.512561 1.0621,-1.035053 1.5728,-1.566357 z m 1.8181,0.57019 c -0.01,-0.002 -0.014,-0.004 -0.021,-0.006 0,9.82e-4 0.01,-0.0038 0.01,-0.01078 l 4.0783,-14.309249 c 0,-0.0077 0,-0.01351 -0,-0.01418 0,0.0012 0.01,0.0024 0.013,0.0036 -0.034,-0.702347 -0.055,-1.402051 -0.061,-2.098296 -0.3953,0.580396 -0.8001,1.155499 -1.2153,1.724189 0,4.84e-4 0,9.67e-4 0,0.0015 -0,-7.25e-4 -0.01,0.0043 -0.01,0.01122 l -4.6132,14.115307 c -0,0.0076 -7e-4,0.01372 0,0.01486 -0,-5.08e-4 -0,-0.001 -0,-0.0015 0.097,0.735896 0.2054,1.473023 0.3255,2.210568 0.5094,-0.539082 1.0059,-1.0865 1.4904,-1.641139 z m 1.8028,0.486314 c -0.01,-0.0017 -0.014,-0.0034 -0.02,-0.0051 0,8.32e-4 0.01,-0.0042 0.01,-0.0112 l 3.6057,-14.447338 c 0,-0.0078 7e-4,-0.01359 -0,-0.01422 0,0.0011 0.01,0.0022 0.014,0.0034 -0.063,-0.704773 -0.1153,-1.407891 -0.1542,-2.108538 -0.3827,0.59094 -0.7736,1.178179 -1.1737,1.760599 0,4.46e-4 0,8.93e-4 0,0.0013 -0,-6.69e-4 -0.01,0.0045 -0.01,0.0115 l -4.0744,14.310529 c -0,0.0077 -2e-4,0.01373 0,0.0147 -0,-4.35e-4 -0,-8.7e-4 -0,-0.0013 0.1186,0.730092 0.2479,1.460428 0.3866,2.190193 0.4827,-0.561806 0.9537,-1.130357 1.4139,-1.704533 z m 1.7812,0.40971 c -0.01,-0.0014 -0.014,-0.0028 -0.02,-0.0043 0,6.96e-4 0.01,-0.0045 0.01,-0.01155 l 3.2,-14.527854 c 0,-0.0078 3e-4,-0.01364 -0,-0.01424 0,0.0011 0.01,0.0021 0.014,0.0032 -0.089,-0.705824 -0.1675,-1.410982 -0.2351,-2.114657 -0.3721,0.597689 -0.7511,1.193269 -1.1381,1.785623 0,4.18e-4 0,8.37e-4 0.01,0.0013 -0,-6.27e-4 -0.01,0.0046 -0.01,0.01171 l -3.6023,14.448176 c -0,0.0078 10e-5,0.0137 0,0.01453 -0,-3.69e-4 -0,-7.38e-4 -0,-0.0011 0.1367,0.722915 0.2824,1.445086 0.4357,2.165698 0.4579,-0.580736 0.9054,-1.166623 1.3433,-1.756542 z m 1.7533,0.340381 c -0.01,-0.0012 -0.013,-0.0023 -0.02,-0.0035 0,5.74e-4 0.01,-0.0047 0.01,-0.01181 l 2.861,-14.550795 c 0,-0.0079 -10e-5,-0.01364 -0,-0.01423 0,0.001 0.01,0.0021 0.014,0.0031 -0.1099,-0.705503 -0.2116,-1.411326 -0.3039,-2.116656 -0.3634,0.600643 -0.7325,1.20077 -1.1083,1.799263 0,3.99e-4 0,7.99e-4 0.01,0.0012 -0,-5.99e-4 -0.01,0.0047 -0.01,0.01184 l -3.1971,14.528249 c -0,0.0078 5e-4,0.01364 0,0.01433 -0,-3.09e-4 -0,-6.18e-4 -0,-9.26e-4 0.1508,0.714364 0.3087,1.426996 0.4726,2.13708 0.4351,-0.59587 0.8609,-1.195297 1.2785,-1.797163 z m 1.7499,0.317759 c -0.01,-0.0012 -0.013,-0.0023 -0.02,-0.0035 0,5.64e-4 0.01,-0.0048 0.01,-0.01188 l 2.5354,-14.598494 c 0,-0.0079 -4e-4,-0.01356 -0,-0.01403 0,8.29e-4 0.01,0.0017 0.014,0.0025 -0.124,-0.69675 -0.2401,-1.393612 -0.3482,-2.090507 -0.2594,0.452828 -0.5225,0.904229 -0.7894,1.354144 -0.094,0.155724 -0.1889,0.311465 -0.2839,0.467204 0,3.89e-4 0,7.79e-4 0.01,0.0012 -0,-5.85e-4 -0.01,0.0047 -0.01,0.01189 l -2.8587,14.550749 c -0,0.0079 7e-4,0.01353 0,0.01411 -0,-2.54e-4 -0,-5.09e-4 -0,-7.63e-4 0.041,0.180846 0.083,0.361513 0.125,0.541986 0.1241,0.527384 0.2524,1.054585 0.3847,1.581569 0.4202,-0.599149 0.8328,-1.201258 1.2381,-1.806178 z m 1.7505,0.28377 c -0.01,-0.001 -0.013,-0.002 -0.02,-0.003 0,4.94e-4 0.01,-0.0049 0.01,-0.01206 l 2.2198,-14.648987 c 0,-0.0079 -7e-4,-0.01355 -0,-0.01396 0,7.26e-4 0.01,0.0015 0.014,0.0022 -0.1402,-0.693866 -0.2731,-1.387928 -0.3982,-2.082107 -0.3383,0.61882 -0.6829,1.235262 -1.0343,1.849178 0,3.09e-4 0,6.17e-4 0.01,9.25e-4 -0,-4.62e-4 -0.01,0.005 -0.01,0.01218 l -2.5328,14.598908 c -0,0.0079 10e-4,0.01356 0,0.01413 -0,-2.5e-4 -0,-5e-4 -0,-7.5e-4 0.1778,0.705718 0.3628,1.411039 0.5547,2.115885 0.405,-0.608141 0.8028,-1.219021 1.1936,-1.83249 z m 1.7481,0.246842 c -0.01,-8.7e-4 -0.013,-0.0017 -0.02,-0.0026 0,4.27e-4 0.01,-0.0051 0.01,-0.01223 l 1.9195,-14.692672 c 10e-4,-0.0079 -10e-4,-0.01354 -0,-0.01389 0,6.28e-4 0.01,0.0013 0.014,0.0019 -0.1558,-0.690951 -0.3045,-1.382182 -0.446,-2.073614 -0.3268,0.62579 -0.6598,1.249423 -0.9992,1.870752 0,2.7e-4 0,5.4e-4 0.01,8.1e-4 -0,-4.05e-4 -0.01,0.0051 -0.01,0.01234 l -2.2175,14.649348 c -0,0.0079 0,0.01354 0,0.01403 -0,-2.19e-4 -0,-4.38e-4 -0,-6.57e-4 0.1916,0.701699 0.3901,1.402918 0.595,2.103576 0.3905,-0.616553 0.774,-1.235623 1.1509,-1.857062 z m 1.7449,0.211561 c -0.01,-7.39e-4 -0.013,-0.0015 -0.02,-0.0022 0,3.62e-4 0.01,-0.0052 0.01,-0.0124 l 1.6343,-14.72955 c 9e-4,-0.008 -0,-0.01352 -0,-0.01382 0,5.36e-4 0.01,0.0011 0.015,0.0016 -0.1705,-0.688005 -0.3344,-1.376374 -0.4912,-2.065028 -0.3161,0.632181 -0.638,1.262426 -0.9659,1.890587 0,2.34e-4 0,4.67e-4 0.01,7.01e-4 -0,-3.5e-4 -0.01,0.0052 -0.01,0.01248 l -1.9172,14.692981 c -10e-4,0.0079 0,0.01351 0,0.01394 -0,-1.9e-4 -0,-3.79e-4 -0,-5.68e-4 0.2046,0.697649 0.4157,1.394734 0.6329,2.091174 0.3764,-0.624385 0.7463,-1.251067 1.1098,-1.879896 z m 1.7409,0.177929 c -0.01,-6.15e-4 -0.013,-0.0012 -0.02,-0.0018 0,3.01e-4 0.01,-0.0054 0.01,-0.01254 l 1.3642,-14.759621 c 7e-4,-0.008 -0,-0.0135 -0,-0.01375 0,4.5e-4 0.01,8.99e-4 0.015,0.0013 -0.1845,-0.685026 -0.3626,-1.370501 -0.5342,-2.056346 -0.3058,0.637992 -0.6171,1.274269 -0.9342,1.908682 0,2e-4 0,3.99e-4 0.01,5.99e-4 -0,-3e-4 -0.01,0.0054 -0.01,0.01262 l -1.6321,14.729807 c -9e-4,0.008 0,0.01348 0,0.01384 -0,-1.61e-4 -0,-3.21e-4 -0,-4.82e-4 0.2168,0.693568 0.4397,1.386486 0.6684,2.078677 0.363,-0.631637 0.7197,-1.26535 1.0704,-1.900989 z m 1.7362,0.145943 c -0.01,-4.96e-4 -0.013,-9.93e-4 -0.02,-0.0015 0,2.43e-4 0.01,-0.0055 0.01,-0.01268 l 1.1092,-14.782884 c 6e-4,-0.008 -0,-0.01347 -0,-0.01368 0,3.69e-4 0.01,7.37e-4 0.015,0.0011 -0.1976,-0.682017 -0.3892,-1.364567 -0.5746,-2.04757 -0.2962,0.643222 -0.5975,1.284951 -0.9042,1.925038 0,1.67e-4 0,3.34e-4 0.01,5.01e-4 -0,-2.5e-4 -0.01,0.0055 -0.01,0.01274 l -1.3621,14.759825 c -8e-4,0.008 0,0.01345 0.01,0.01375 -0,-1.34e-4 -0,-2.67e-4 -0,-4.01e-4 0.2283,0.689454 0.4622,1.378176 0.7015,2.066085 0.3502,-0.638309 0.6943,-1.278473 1.0326,-1.920342 z m 1.7308,0.115604 c -0.01,-3.84e-4 -0.013,-7.68e-4 -0.02,-0.0012 0,1.88e-4 0.01,-0.0056 0.01,-0.0128 l 0.8694,-14.79934 c 4e-4,-0.008 -0,-0.01344 -0,-0.01361 0.01,2.93e-4 0.01,5.86e-4 0.015,8.79e-4 -0.2099,-0.678977 -0.4142,-1.35857 -0.6127,-2.038701 -0.2869,0.647874 -0.5788,1.294475 -0.8758,1.939655 0,1.37e-4 0,2.74e-4 0.01,4.11e-4 -0,-2.05e-4 -0.01,0.0056 -0.01,0.01286 l -1.1073,14.783036 c -6e-4,0.008 0,0.01341 0.01,0.01365 -0,-1.08e-4 -0,-2.16e-4 -0,-3.24e-4 0.2388,0.68531 0.4829,1.369804 0.7321,2.0534 0.3378,-0.644402 0.6699,-1.290437 0.9965,-1.937957 z m 1.7247,0.08691 c -0.01,-2.78e-4 -0.013,-5.57e-4 -0.02,-8.36e-4 0,1.37e-4 0.01,-0.0057 0.01,-0.01292 l 0.6447,-14.808989 c 3e-4,-0.008 -0,-0.01341 -0,-0.01354 0,2.23e-4 0.01,4.46e-4 0.015,6.69e-4 -0.2215,-0.675905 -0.4377,-1.35251 -0.6484,-2.029737 -0.2784,0.651945 -0.5613,1.302839 -0.8492,1.952532 0,1.09e-4 0,2.18e-4 0.01,3.27e-4 -0,-1.63e-4 -0.01,0.0057 -0.01,0.01296 l -0.8676,14.79944 c -5e-4,0.008 0,0.01337 0.01,0.01356 -0,-8.3e-5 -0,-1.66e-4 -0,-2.5e-4 0.2486,0.681135 0.5022,1.361368 0.7604,2.040621 0.326,-0.649915 0.6466,-1.301242 0.9621,-1.953832 z m 1.7204,0.06094 c -0.01,-1.9e-4 -0.013,-3.8e-4 -0.02,-5.71e-4 0,9.3e-5 0.01,-0.0058 0.01,-0.01301 l 0.43,-14.814075 c 2e-4,-0.008 -0,-0.01338 -0.01,-0.01346 0,1.44e-4 0.01,2.89e-4 0.015,4.33e-4 -0.1555,-0.45319 -0.3089,-0.906733 -0.4603,-1.360599 -0.073,-0.21954 -0.1464,-0.439157 -0.2187,-0.658848 -0.2704,0.655437 -0.545,1.310043 -0.8242,1.96367 0,8.3e-5 0,1.66e-4 0.01,2.49e-4 -0,-1.25e-4 -0.01,0.0057 -0.01,0.01304 l -0.6429,14.809037 c -4e-4,0.008 0,0.01333 0.01,0.01346 -0,-6e-5 -0,-1.2e-4 -0,-1.81e-4 0.2576,0.676928 0.5199,1.35287 0.7864,2.027747 0.1017,-0.211658 0.2029,-0.423441 0.3036,-0.635342 0.2115,-0.443281 0.4209,-0.887135 0.6283,-1.331558 z m 1.7297,0.03657 c -0.01,-8.7e-5 -0.013,-1.74e-4 -0.02,-2.62e-4 0,4.3e-5 0.01,-0.0059 0.01,-0.01311 l 0.1981,-14.81891 c 2e-4,-0.008 -0,-0.01334 -0.01,-0.01337 0,6.7e-5 0.01,1.34e-4 0.015,2e-4 -0.2397,-0.668527 -0.4743,-1.338001 -0.7042,-2.008316 -0.2581,0.659927 -0.5219,1.318796 -0.791,1.976586 0,5.3e-5 0,1.07e-4 0.01,1.6e-4 -0,-8e-5 -0.01,0.0058 -0.01,0.01313 l -0.4282,14.814127 c -2e-4,0.008 0,0.01329 0.01,0.01338 -0,-4.1e-5 -0,-8.2e-5 -0,-1.24e-4 0.2679,0.673307 0.5412,1.345676 0.8201,2.017003 0.3073,-0.658913 0.6099,-1.319084 0.9075,-1.980491 z m 1.739,0.0084 c -0.01,2.3e-5 -0.013,4.7e-5 -0.02,6.9e-5 0,-1.1e-5 0.01,-0.006 0.01,-0.01322 l -0.052,-14.819953 c 0,-0.008 -0,-0.01329 -0.01,-0.01328 0.01,-1.7e-5 0.01,-3.4e-5 0.015,-5.2e-5 -0.2494,-0.66436 -0.4934,-1.329832 -0.7322,-1.996312 -0.2455,0.664024 -0.497,1.326994 -0.7543,1.988888 0,2.4e-5 0,4.9e-5 0.01,7.4e-5 -0,-3.7e-5 -0.01,0.0059 -0.01,0.01323 l -0.1962,14.818932 c -2e-4,0.008 0,0.01324 0.01,0.01328 -0,-1.8e-5 -0,-3.7e-5 -0,-5.6e-5 0.2799,0.669002 0.5655,1.336899 0.8573,2.003588 0.2984,-0.663814 0.5917,-1.328883 0.8796,-1.995183 z m 1.761,-0.02273 c -0.01,1.61e-4 -0.014,3.22e-4 -0.021,4.81e-4 0,-7.8e-5 0.01,-0.0062 0.01,-0.01335 l -0.3449,-14.81612 c -2e-4,-0.008 -0,-0.01323 -0.01,-0.01317 0,-1.1e-4 0.01,-2.2e-4 0.014,-3.31e-4 -0.2529,-0.659536 -0.5016,-1.320714 -0.7495,-1.982874 -0.019,0.05494 -0.038,0.109866 -0.057,0.164791 -0.2138,0.613181 -0.4331,1.225476 -0.6575,1.836867 0,-7e-6 0,-1.3e-5 0.01,-2e-5 -0,1e-5 -0.01,0.006 -0.01,0.01332 l 0.054,14.819947 c 10e-5,0.008 0,0.01319 0.01,0.01318 -0,5e-6 -0,1.1e-5 -0,1.6e-5 0.2679,0.607957 0.5409,1.21485 0.8192,1.820599 0.026,0.05604 0.052,0.11207 0.078,0.168087 0.2894,-0.668887 0.5779,-1.339275 0.8622,-2.011413 z"
         style="fill:url(#linearGradient23345);fill-opacity:1;stroke:#000000;stroke-width:0.26499999;stroke-linecap:butt;stroke-linejoin:miter;stroke-miterlimit:4;stroke-dasharray:none;stroke-opacity:1" />
      <rect
         style="opacity:1;vector-effect:none;fill:url(#linearGradient16017-5);fill-opacity:1;fill-rule:evenodd;stroke:#000000;stroke-width:0.38999999;stroke-linecap:butt;stroke-linejoin:round;stroke-miterlimit:4;stroke-dasharray:none;stroke-dashoffset:0;stroke-opacity:1;marker:none;marker-start:none;marker-mid:none;marker-end:none;paint-order:markers stroke fill"
         id="rect15969-9"
         width="20"
         height="4.6100001"
         x="-74.052063"
         y="-1087.8099"
         ry="0.045196082"
         transform="rotate(90)" />
      <rect
         style="opacity:1;vector-effect:none;fill:url(#linearGradient16017-5-9);fill-opacity:1;fill-rule:evenodd;stroke:#000000;stroke-width:0.38999999;stroke-linecap:butt;stroke-linejoin:round;stroke-miterlimit:4;stroke-dasharray:none;stroke-dashoffset:0;stroke-opacity:1;marker:none;marker-start:none;marker-mid:none;marker-end:none;paint-order:markers stroke fill"
         id="rect15969-9-4"
         width="20"
         height="4.6100001"
         x="-1055.7943"
         y="81.27343"
         ry="0.045196082"
         transform="scale(-1)" />
    </g>
  </g>
</svg>
