<?xml version="1.0" encoding="UTF-8" standalone="no"?>
<!-- Created with Inkscape (http://www.inkscape.org/) -->

<svg
   xmlns:dc="http://purl.org/dc/elements/1.1/"
   xmlns:cc="http://creativecommons.org/ns#"
   xmlns:rdf="http://www.w3.org/1999/02/22-rdf-syntax-ns#"
   xmlns:svg="http://www.w3.org/2000/svg"
   xmlns="http://www.w3.org/2000/svg"
   xmlns:xlink="http://www.w3.org/1999/xlink"
   xmlns:sodipodi="http://sodipodi.sourceforge.net/DTD/sodipodi-0.dtd"
   xmlns:inkscape="http://www.inkscape.org/namespaces/inkscape"
   width="150.39999mm"
   height="185.19493mm"
   viewBox="0 0 150.39999 185.19493"
   version="1.1"
   id="svg8"
   inkscape:version="0.92.3 (2405546, 2018-03-11)"
   sodipodi:docname="Background_rough_group.svg">
  <defs
     id="defs2">
    <linearGradient
       inkscape:collect="always"
       xlink:href="#linearGradient18926"
       id="linearGradient3523"
       x1="448.88385"
       y1="119.29379"
       x2="599.28387"
       y2="119.29379"
       gradientUnits="userSpaceOnUse"
       gradientTransform="matrix(1,0,0,0.90407251,-419.00646,19.178526)" />
    <linearGradient
       inkscape:collect="always"
       id="linearGradient18926">
      <stop
         style="stop-color:#ffffff;stop-opacity:1"
         offset="0"
         id="stop18922" />
      <stop
         id="stop18930"
         offset="0.5"
         style="stop-color:#f2f2f2;stop-opacity:1" />
      <stop
         style="stop-color:#b3b3b3;stop-opacity:1"
         offset="1"
         id="stop18924" />
    </linearGradient>
  </defs>
  <sodipodi:namedview
     id="base"
     pagecolor="#ffffff"
     bordercolor="#666666"
     borderopacity="1.0"
     inkscape:pageopacity="0.0"
     inkscape:pageshadow="2"
     inkscape:zoom="0.7"
     inkscape:cx="321.82434"
     inkscape:cy="324.80979"
     inkscape:document-units="mm"
     inkscape:current-layer="layer1"
     showgrid="false"
     fit-margin-top="0"
     fit-margin-left="0"
     fit-margin-right="0"
     fit-margin-bottom="0"
     inkscape:window-width="2560"
     inkscape:window-height="1418"
     inkscape:window-x="-8"
     inkscape:window-y="124"
     inkscape:window-maximized="1" />
  <metadata
     id="metadata5">
    <rdf:RDF>
      <cc:Work
         rdf:about="">
        <dc:format>image/svg+xml</dc:format>
        <dc:type
           rdf:resource="http://purl.org/dc/dcmitype/StillImage" />
        <dc:title />
      </cc:Work>
    </rdf:RDF>
  </metadata>
  <g
     inkscape:label="Layer 1"
     inkscape:groupmode="layer"
     id="layer1"
     transform="translate(-29.877383,-49.432292)">
    <g
       id="g871"
       style="image-rendering:optimizeSpeed">
      <rect
         ry="3.1795921"
         rx="2.6801071"
         y="50.351292"
         x="30.917904"
         height="183.39594"
         width="148.44049"
         id="rect3467-0"
         style="opacity:1;vector-effect:none;fill:#f9f9f9;fill-opacity:1;fill-rule:evenodd;stroke:#000000;stroke-width:1.75999999;stroke-linecap:butt;stroke-linejoin:round;stroke-miterlimit:4;stroke-dasharray:none;stroke-dashoffset:0;stroke-opacity:1;marker:none;marker-start:none;marker-mid:none;marker-end:none;paint-order:markers stroke fill" />
      <rect
         y="50.351292"
         x="30.796383"
         height="153.35493"
         width="148.562"
         id="rect3467"
         style="opacity:1;vector-effect:none;fill:url(#linearGradient3523);fill-opacity:1;fill-rule:evenodd;stroke:#000000;stroke-width:1.83800006;stroke-linecap:butt;stroke-linejoin:round;stroke-miterlimit:4;stroke-dasharray:none;stroke-dashoffset:0;stroke-opacity:1;marker:none;marker-start:none;marker-mid:none;marker-end:none;paint-order:markers stroke fill" />
      <g
         id="text3416"
         style="font-style:normal;font-variant:normal;font-weight:normal;font-stretch:normal;font-size:12.77167416px;line-height:1.25;font-family:'Segoe Print';-inkscape-font-specification:'Segoe Print';letter-spacing:0px;word-spacing:0px;opacity:1;fill:#000000;fill-opacity:1;stroke:none;stroke-width:0.31929183"
         aria-label="Rough group">
        <path
           id="path837"
           style="font-style:normal;font-variant:normal;font-weight:bold;font-stretch:normal;font-family:'Segoe Print';-inkscape-font-specification:'Segoe Print Bold';stroke-width:0.31929183"
           d="m 41.247354,215.13401 -0.08107,-0.14344 q -0.199557,-0.3118 -0.199557,-0.46147 0,-0.29934 0.305572,-0.5176 0.305573,-0.22451 0.555019,-0.22451 0.112251,0 0.286864,0.0187 0.174613,0.0249 0.21203,0.0249 1.83967,-0.28687 2.581774,-0.28687 1.390665,0 2.195131,0.66104 0.810702,0.65479 0.810702,1.6214 0,0.92295 -0.798229,1.75236 -0.791994,0.82942 -2.126534,1.35949 2.220076,1.79602 3.367531,2.46952 0.405351,0.24321 0.405351,0.62362 0,0.24945 -0.286864,0.49889 -0.280627,0.24945 -0.530074,0.24945 -0.361698,0 -0.823174,-0.31181 -0.461477,-0.31181 -1.30336,-0.97908 -0.841882,-0.6735 -0.972842,-0.80446 -1.184872,-0.99155 -1.70871,-1.31583 -0.661034,0 -0.661034,-0.6548 0,-0.30557 0.2931,-0.52384 0.2931,-0.2245 0.66727,-0.2245 0.106015,0 0.230738,0.0312 0.118487,0.0374 0.168377,0.0374 0.399115,0 1.477972,-0.66728 1.078857,-0.66727 1.078857,-1.54033 0,-0.43653 -0.45524,-0.74834 -0.449004,-0.31181 -1.147455,-0.31181 -0.829411,0 -1.340777,0.0998 -0.505129,0.0998 -0.555019,0.14343 -0.04365,0.0374 -0.112251,0.19332 -0.06236,0.15591 -0.274391,1.28466 -0.205794,1.12251 -0.380407,2.46952 -0.174612,1.34077 -0.174612,1.97686 0,0.40535 0.06236,0.72964 0.05613,0.32428 0.05613,0.56125 0,0.2245 -0.268155,0.48019 -0.261919,0.26191 -0.573728,0.26191 -0.866827,0 -0.866827,-1.19734 0,-0.97284 0.212029,-2.72521 0.218266,-1.75236 0.511366,-3.08066 0.04365,-0.21203 0.07483,-0.38041 z"
           inkscape:connector-curvature="0" />
        <path
           id="path839"
           style="font-style:normal;font-variant:normal;font-weight:bold;font-stretch:normal;font-family:'Segoe Print';-inkscape-font-specification:'Segoe Print Bold';stroke-width:0.31929183"
           d="m 55.390985,219.48685 q -0.417823,1.45927 -1.590223,2.46329 -1.166163,0.99779 -2.332327,0.99779 -0.922953,0 -1.521625,-0.67351 -0.598672,-0.67974 -0.598672,-1.66506 0,-1.60893 1.097565,-3.16797 1.097566,-1.55904 2.662844,-1.55904 1.066385,0 1.727419,0.79199 0.661034,0.78576 0.661034,1.87709 0,0.47395 -0.106015,0.92919 z m -3.242808,-1.97063 q -0.436531,0.38665 -0.854355,1.23476 -0.417823,0.84812 -0.417823,1.70248 0,0.5176 0.187085,0.85435 0.193321,0.33676 0.50513,0.33676 0.773285,0 1.608931,-0.91672 0.835647,-0.91672 0.835647,-2.05794 0,-0.64232 -0.274391,-1.05391 -0.268156,-0.41782 -0.754577,-0.41782 -0.461476,0 -0.82941,0.31804 z"
           inkscape:connector-curvature="0" />
        <path
           id="path841"
           style="font-style:normal;font-variant:normal;font-weight:bold;font-stretch:normal;font-family:'Segoe Print';-inkscape-font-specification:'Segoe Print Bold';stroke-width:0.31929183"
           d="m 61.097081,220.36615 q -0.598673,1.09133 -1.390666,1.73366 -0.785757,0.64232 -1.596459,0.64232 -0.480185,0 -0.972843,-0.50513 -0.486421,-0.50513 -0.486421,-1.5528 0,-0.74211 0.37417,-2.23879 0.324281,-1.23476 0.324281,-1.87708 0.249447,-0.52384 0.779521,-0.52384 0.361698,0 0.573728,0.24321 0.218266,0.23697 0.218266,0.48018 0,0.44277 -0.311809,1.25971 -0.180849,0.48642 -0.392878,1.37819 -0.205794,0.88554 -0.205794,1.13498 0,0.82942 0.342989,0.82942 0.542547,0 1.4655,-1.04144 0.922953,-1.04145 1.203581,-2.13277 0.280627,-1.06639 0.498893,-1.39691 0.218266,-0.33051 0.617381,-0.33051 0.648561,0 0.648561,0.72339 0,0.10602 -0.106014,0.42406 -0.367934,1.1038 -0.367934,2.48823 0,1.62141 0.548782,1.93945 0.180849,0.10602 0.180849,0.26192 0,0.2245 -0.318044,0.42406 -0.318045,0.19956 -0.604909,0.19956 -0.492657,0 -0.760812,-0.69222 -0.261919,-0.69845 -0.261919,-1.87085 z"
           inkscape:connector-curvature="0" />
        <path
           id="path843"
           style="font-style:normal;font-variant:normal;font-weight:bold;font-stretch:normal;font-family:'Segoe Print';-inkscape-font-specification:'Segoe Print Bold';stroke-width:0.31929183"
           d="m 68.736387,220.74032 q -0.692215,0.77952 -1.615168,1.28465 -0.916717,0.4989 -1.583987,0.4989 -0.661034,0 -1.028968,-0.38665 -0.361698,-0.38664 -0.361698,-1.06638 0,-0.96661 0.729632,-2.15148 0.735868,-1.18487 2.032991,-2.05793 1.30336,-0.8793 2.3448,-0.8793 0.573727,0 0.991551,0.3118 0.09978,0.0748 0.174612,0.12473 0.149669,0.10601 0.274392,0.39288 0.130959,0.28062 0.130959,0.45524 0,0.11225 -0.236974,0.75457 -0.243211,0.66727 -0.342989,1.29713 -0.09354,0.62361 -0.380407,3.12432 -0.255683,2.17642 -1.216053,3.18044 -0.96037,1.00403 -2.132769,1.00403 -1.228526,0 -2.388453,-0.82941 -1.153691,-0.82318 -1.153691,-1.35949 0,-0.47395 0.461476,-0.47395 0.180849,0 0.735868,0.3617 1.421847,0.93542 2.438342,0.93542 0.773285,0 1.297123,-0.97284 0.523839,-0.9666 0.829411,-3.54838 z m 0.149668,-3.46731 q -0.461477,0 -1.209817,0.55502 -0.74834,0.54878 -1.384429,1.48421 -0.63609,0.93543 -0.63609,1.55281 0,0.32428 0.236975,0.32428 0.804466,0 1.596459,-0.64857 0.791993,-0.65479 1.278415,-1.50291 0.492657,-0.84812 0.492657,-1.28465 0,-0.21827 -0.112251,-0.34923 -0.112251,-0.13096 -0.261919,-0.13096 z"
           inkscape:connector-curvature="0" />
        <path
           id="path845"
           style="font-style:normal;font-variant:normal;font-weight:bold;font-stretch:normal;font-family:'Segoe Print';-inkscape-font-specification:'Segoe Print Bold';stroke-width:0.31929183"
           d="m 73.189012,219.77372 q 1.035204,-1.93945 1.783544,-2.6379 0.754576,-0.70469 1.521625,-0.70469 0.530075,0 0.8793,0.36793 0.355462,0.3617 0.517602,1.8958 0.0686,0.72963 0.174613,1.17863 0.106015,0.44901 0.236974,0.79823 0.13096,0.34299 0.37417,0.64857 0.187085,0.24321 0.187085,0.46771 0,0.2245 -0.218265,0.41159 -0.21203,0.18708 -0.492658,0.18708 -0.555019,0 -0.985315,-0.60491 -0.430295,-0.60491 -0.511365,-1.67129 -0.09978,-1.30336 -0.218266,-1.66506 -0.112251,-0.3617 -0.380407,-0.3617 -0.361697,0 -1.409374,1.4468 -1.04144,1.44055 -1.502917,2.30738 -0.286863,0.6548 -0.442768,0.84812 -0.155904,0.19332 -0.386642,0.19332 -0.380406,0 -0.617381,-0.18709 -0.236974,-0.18708 -0.236974,-0.53007 0,-0.16838 0.168376,-1.05391 0.63609,-3.34883 1.041441,-7.12794 0.09978,-0.91049 0.380406,-1.25347 0.286864,-0.34923 0.523838,-0.34923 0.330517,0 0.573728,0.25568 0.24321,0.25569 0.24321,0.71093 0,0.69845 -0.168376,1.60893 -0.168377,0.91048 -0.629853,2.90605 -0.280628,1.20358 -0.405351,1.91451 z"
           inkscape:connector-curvature="0" />
        <path
           id="path847"
           style="font-style:normal;font-variant:normal;font-weight:bold;font-stretch:normal;font-family:'Segoe Print';-inkscape-font-specification:'Segoe Print Bold';stroke-width:0.31929183"
           d="m 89.141132,220.74032 q -0.692215,0.77952 -1.615168,1.28465 -0.916717,0.4989 -1.583987,0.4989 -0.661034,0 -1.028968,-0.38665 -0.361697,-0.38664 -0.361697,-1.06638 0,-0.96661 0.729631,-2.15148 0.735868,-1.18487 2.032991,-2.05793 1.30336,-0.8793 2.3448,-0.8793 0.573727,0 0.991551,0.3118 0.09978,0.0748 0.174613,0.12473 0.149668,0.10601 0.274391,0.39288 0.13096,0.28062 0.13096,0.45524 0,0.11225 -0.236975,0.75457 -0.24321,0.66727 -0.342989,1.29713 -0.09354,0.62361 -0.380406,3.12432 -0.255683,2.17642 -1.216053,3.18044 -0.96037,1.00403 -2.13277,1.00403 -1.228526,0 -2.388453,-0.82941 -1.153691,-0.82318 -1.153691,-1.35949 0,-0.47395 0.461476,-0.47395 0.180849,0 0.735868,0.3617 1.421847,0.93542 2.438342,0.93542 0.773285,0 1.297123,-0.97284 0.523839,-0.9666 0.829411,-3.54838 z m 0.149668,-3.46731 q -0.461477,0 -1.209817,0.55502 -0.74834,0.54878 -1.384429,1.48421 -0.63609,0.93543 -0.63609,1.55281 0,0.32428 0.236975,0.32428 0.804466,0 1.596459,-0.64857 0.791994,-0.65479 1.278415,-1.50291 0.492657,-0.84812 0.492657,-1.28465 0,-0.21827 -0.112251,-0.34923 -0.112251,-0.13096 -0.261919,-0.13096 z"
           inkscape:connector-curvature="0" />
        <path
           id="path849"
           style="font-style:normal;font-variant:normal;font-weight:bold;font-stretch:normal;font-family:'Segoe Print';-inkscape-font-specification:'Segoe Print Bold';stroke-width:0.31929183"
           d="m 93.737191,219.55545 0.106014,-0.19956 q 0.754577,-1.51539 1.621404,-2.45705 0.873064,-0.9479 1.702474,-0.9479 0.63609,0 1.035205,0.34923 0.405351,0.34923 0.405351,0.82941 0,0.29934 -0.137196,0.5176 -0.137196,0.21203 -0.380407,0.21203 -0.386642,0 -0.704687,-0.31804 -0.224502,-0.2058 -0.355461,-0.2058 -0.467713,0 -1.565279,1.45303 -1.097565,1.45303 -1.322068,3.26775 -0.0686,0.52384 -0.305572,0.72964 -0.236974,0.21203 -0.642325,0.21203 -0.430296,0 -0.611145,-0.48643 -0.180849,-0.49265 -0.180849,-1.60269 0,-0.45524 0.02495,-1.22853 0.02495,-0.72963 0.143432,-1.78354 0.03118,-0.27439 0.04365,-0.4303 0.05613,-0.61114 0.124723,-0.83564 0.07483,-0.23074 0.336754,-0.4303 0.261919,-0.19956 0.579963,-0.19956 0.336753,0 0.511366,0.19333 0.174613,0.19332 0.174613,0.42405 0,0.2931 -0.280628,1.21606 -0.09978,0.31804 -0.168376,0.76081 z"
           inkscape:connector-curvature="0" />
        <path
           id="path851"
           style="font-style:normal;font-variant:normal;font-weight:bold;font-stretch:normal;font-family:'Segoe Print';-inkscape-font-specification:'Segoe Print Bold';stroke-width:0.31929183"
           d="m 104.55694,219.48685 q -0.41782,1.45927 -1.59022,2.46329 -1.16616,0.99779 -2.33233,0.99779 -0.922951,0 -1.521623,-0.67351 -0.598672,-0.67974 -0.598672,-1.66506 0,-1.60893 1.097566,-3.16797 1.097569,-1.55904 2.662839,-1.55904 1.06639,0 1.72742,0.79199 0.66104,0.78576 0.66104,1.87709 0,0.47395 -0.10602,0.92919 z m -3.24281,-1.97063 q -0.43653,0.38665 -0.85435,1.23476 -0.41782,0.84812 -0.41782,1.70248 0,0.5176 0.18708,0.85435 0.19332,0.33676 0.50513,0.33676 0.77329,0 1.60893,-0.91672 0.83565,-0.91672 0.83565,-2.05794 0,-0.64232 -0.27439,-1.05391 -0.26816,-0.41782 -0.75458,-0.41782 -0.46147,0 -0.82941,0.31804 z"
           inkscape:connector-curvature="0" />
        <path
           id="path853"
           style="font-style:normal;font-variant:normal;font-weight:bold;font-stretch:normal;font-family:'Segoe Print';-inkscape-font-specification:'Segoe Print Bold';stroke-width:0.31929183"
           d="m 110.26304,220.36615 q -0.59868,1.09133 -1.39067,1.73366 -0.78576,0.64232 -1.59646,0.64232 -0.48018,0 -0.97284,-0.50513 -0.48642,-0.50513 -0.48642,-1.5528 0,-0.74211 0.37417,-2.23879 0.32428,-1.23476 0.32428,-1.87708 0.24945,-0.52384 0.77952,-0.52384 0.3617,0 0.57373,0.24321 0.21826,0.23697 0.21826,0.48018 0,0.44277 -0.3118,1.25971 -0.18085,0.48642 -0.39288,1.37819 -0.2058,0.88554 -0.2058,1.13498 0,0.82942 0.34299,0.82942 0.54255,0 1.4655,-1.04144 0.92296,-1.04145 1.20358,-2.13277 0.28063,-1.06639 0.4989,-1.39691 0.21826,-0.33051 0.61738,-0.33051 0.64856,0 0.64856,0.72339 0,0.10602 -0.10602,0.42406 -0.36793,1.1038 -0.36793,2.48823 0,1.62141 0.54878,1.93945 0.18085,0.10602 0.18085,0.26192 0,0.2245 -0.31804,0.42406 -0.31805,0.19956 -0.60491,0.19956 -0.49266,0 -0.76081,-0.69222 -0.26192,-0.69845 -0.26192,-1.87085 z"
           inkscape:connector-curvature="0" />
        <path
           id="path855"
           style="font-style:normal;font-variant:normal;font-weight:bold;font-stretch:normal;font-family:'Segoe Print';-inkscape-font-specification:'Segoe Print Bold';stroke-width:0.31929183"
           d="m 115.07736,222.20582 q -0.10601,0.43653 -0.21203,1.32207 l -0.29933,2.45081 q -0.0748,0.59868 -0.2931,0.82941 -0.21203,0.23074 -0.52384,0.23074 -0.28063,0 -0.53631,-0.21203 -0.24945,-0.20579 -0.24945,-0.46147 0,-0.50513 0.15591,-1.16617 0.92918,-3.71052 1.01649,-7.70167 v -0.12472 q 0,-0.83565 0.0436,-1.11004 0.0499,-0.28062 0.26816,-0.49265 0.2245,-0.21203 0.62985,-0.21203 0.67974,0 0.67974,1.04144 0,0.42406 -0.1559,1.44055 l -0.0624,0.4303 q 0.71092,-1.18488 1.69,-1.9644 0.97908,-0.78575 1.75236,-0.78575 0.69846,0 1.18488,0.49889 0.49265,0.49889 0.49265,1.25347 0,2.01428 -1.56527,3.66687 -1.55905,1.64635 -3.08691,1.64635 -0.72339,0 -0.92919,-0.57997 z m 3.66063,-5.07 q -0.76081,0 -1.97686,1.4842 -1.20982,1.48421 -1.20982,2.33233 0,0.21827 0.21203,0.39288 0.21827,0.16838 0.50513,0.16838 0.79199,0 1.81473,-1.241 1.02896,-1.24723 1.02896,-2.40716 0,-0.38664 -0.11848,-0.55502 -0.11849,-0.17461 -0.25569,-0.17461 z"
           inkscape:connector-curvature="0" />
      </g>
    </g>
  </g>
</svg>
