<?xml version="1.0" encoding="UTF-8" standalone="no"?>
<!-- Created with Inkscape (http://www.inkscape.org/) -->

<svg
   xmlns:dc="http://purl.org/dc/elements/1.1/"
   xmlns:cc="http://creativecommons.org/ns#"
   xmlns:rdf="http://www.w3.org/1999/02/22-rdf-syntax-ns#"
   xmlns:svg="http://www.w3.org/2000/svg"
   xmlns="http://www.w3.org/2000/svg"
   xmlns:xlink="http://www.w3.org/1999/xlink"
   xmlns:sodipodi="http://sodipodi.sourceforge.net/DTD/sodipodi-0.dtd"
   xmlns:inkscape="http://www.inkscape.org/namespaces/inkscape"
   width="124.24738mm"
   height="14.66839mm"
   viewBox="0 0 124.24737 14.668389"
   version="1.1"
   id="svg8"
   inkscape:version="0.92.3 (2405546, 2018-03-11)"
   sodipodi:docname="High_vacuum_group.svg">
  <defs
     id="defs2">
    <linearGradient
       id="linearGradient6016">
      <stop
         style="stop-color:#505050;stop-opacity:1;"
         offset="0"
         id="stop6018" />
      <stop
         id="stop6024"
         offset="0.77456307"
         style="stop-color:#e6e6e6;stop-opacity:1;" />
      <stop
         style="stop-color:#505050;stop-opacity:1;"
         offset="1"
         id="stop6020" />
    </linearGradient>
    <linearGradient
       id="linearGradient9984">
      <stop
         id="stop9986"
         offset="0"
         style="stop-color:#818181;stop-opacity:1;" />
      <stop
         style="stop-color:#ffffff;stop-opacity:1;"
         offset="0.5"
         id="stop9990" />
      <stop
         style="stop-color:#818181;stop-opacity:1;"
         offset="1"
         id="stop9988" />
    </linearGradient>
    <linearGradient
       id="linearGradient2794">
      <stop
         style="stop-color:#545454;stop-opacity:1"
         offset="0"
         id="stop2796" />
      <stop
         style="stop-color:#545454;stop-opacity:1"
         offset="0.9464286"
         id="stop2804" />
      <stop
         style="stop-color:#c5c5c5;stop-opacity:0"
         offset="1"
         id="stop2798" />
    </linearGradient>
    <linearGradient
       id="linearGradient2760-2">
      <stop
         style="stop-color:#00ff00;stop-opacity:1"
         offset="0"
         id="stop2762-3" />
      <stop
         style="stop-color:#00a200;stop-opacity:1"
         offset="0.61160713"
         id="stop2768-0" />
      <stop
         style="stop-color:#66ff66;stop-opacity:1"
         offset="1"
         id="stop2764-1" />
    </linearGradient>
    <linearGradient
       id="linearGradient2816-2">
      <stop
         style="stop-color:#00b000;stop-opacity:1"
         offset="0"
         id="stop2818-2" />
      <stop
         style="stop-color:#ffffff;stop-opacity:1"
         offset="1"
         id="stop2820-3" />
    </linearGradient>
    <radialGradient
       gradientTransform="matrix(0.26458333,0,0,0.26458333,-200.82029,-238.50011)"
       cx="62.984127"
       cy="65.015877"
       r="54.179893"
       fx="62.984127"
       fy="65.015877"
       id="radialGradient2812-9-5-1"
       xlink:href="#linearGradient2794"
       gradientUnits="userSpaceOnUse" />
    <linearGradient
       id="linearGradient2760">
      <stop
         style="stop-color:red;stop-opacity:1"
         offset="0"
         id="stop2762" />
      <stop
         style="stop-color:#a20000;stop-opacity:1"
         offset="0.61160713"
         id="stop2768" />
      <stop
         style="stop-color:#f66;stop-opacity:1"
         offset="1"
         id="stop2764" />
    </linearGradient>
    <linearGradient
       id="linearGradient2816">
      <stop
         style="stop-color:#a20000;stop-opacity:1"
         offset="0"
         id="stop2818" />
      <stop
         style="stop-color:white;stop-opacity:1"
         offset="1"
         id="stop2820" />
    </linearGradient>
    <radialGradient
       gradientTransform="matrix(0.26458333,0,0,0.26458333,-241.32498,-197.24517)"
       cx="62.984127"
       cy="65.015877"
       r="54.179893"
       fx="62.984127"
       fy="65.015877"
       id="radialGradient2812-8-4-1-0-9"
       xlink:href="#linearGradient2794"
       gradientUnits="userSpaceOnUse" />
    <linearGradient
       gradientTransform="matrix(0.26458333,0,0,0.26458333,-242.39172,-198.3119)"
       x1="6.9292336"
       y1="121.07077"
       x2="6.9292336"
       y2="8.9609833"
       id="linearGradient2766-6-5-6-2-3"
       xlink:href="#linearGradient2760-2"
       gradientUnits="userSpaceOnUse" />
    <linearGradient
       gradientTransform="matrix(0.26458333,0,0,0.26458333,-242.5751,-197.78273)"
       x1="31.5"
       y1="63"
       x2="31.5"
       y2="12"
       id="linearGradient2822-7-8-8-1-2"
       xlink:href="#linearGradient2816-2"
       gradientUnits="userSpaceOnUse" />
    <linearGradient
       gradientUnits="userSpaceOnUse"
       y2="126.27862"
       x2="1832.8149"
       y1="126.27862"
       x1="1792.0568"
       gradientTransform="matrix(0.0108059,0,0,0.58523455,81.697951,-241.20304)"
       id="linearGradient22577">
      <stop
         style="stop-color:#000000;stop-opacity:1"
         offset="0"
         id="stop22573" />
      <stop
         id="stop4305"
         offset="0.16486111"
         style="stop-color:#ff0000;stop-opacity:1" />
      <stop
         style="stop-color:#ffffff;stop-opacity:1"
         offset="0.55520278"
         id="stop4307" />
      <stop
         id="stop4309"
         offset="0.82208335"
         style="stop-color:#ffd5d5;stop-opacity:1" />
      <stop
         style="stop-color:#f9f9f9;stop-opacity:1"
         offset="1"
         id="stop22575" />
    </linearGradient>
    <radialGradient
       gradientTransform="matrix(0.26458333,0,0,0.26458333,-241.32498,-197.24517)"
       cx="62.984127"
       cy="65.015877"
       r="54.179893"
       fx="62.984127"
       fy="65.015877"
       id="radialGradient2812-8-4-1-0"
       xlink:href="#linearGradient2794"
       gradientUnits="userSpaceOnUse" />
    <linearGradient
       gradientTransform="matrix(0.26458333,0,0,0.26458333,-242.39172,-198.3119)"
       x1="6.9292336"
       y1="121.07077"
       x2="6.9292336"
       y2="8.9609833"
       id="linearGradient2766-6-5-6-2"
       xlink:href="#linearGradient2760-2"
       gradientUnits="userSpaceOnUse" />
    <linearGradient
       gradientTransform="matrix(0.26458333,0,0,0.26458333,-242.5751,-197.78273)"
       x1="31.5"
       y1="63"
       x2="31.5"
       y2="12"
       id="linearGradient2822-7-8-8-1"
       xlink:href="#linearGradient2816-2"
       gradientUnits="userSpaceOnUse" />
    <radialGradient
       gradientTransform="matrix(0.26458333,0,0,0.26458333,-200.82029,-238.50011)"
       cx="62.984127"
       cy="65.015877"
       r="54.179893"
       fx="62.984127"
       fy="65.015877"
       id="radialGradient2812-9-5"
       xlink:href="#linearGradient2794"
       gradientUnits="userSpaceOnUse" />
    <linearGradient
       gradientTransform="matrix(0.26458333,0,0,0.26458333,-201.88702,-239.56685)"
       x1="6.9292336"
       y1="121.07077"
       x2="6.9292336"
       y2="8.9609833"
       id="linearGradient2766-0-9"
       xlink:href="#linearGradient2760"
       gradientUnits="userSpaceOnUse" />
    <linearGradient
       gradientTransform="matrix(0.26458333,0,0,0.26458333,-202.07041,-239.03768)"
       x1="31.5"
       y1="63"
       x2="31.5"
       y2="12"
       id="linearGradient2822-0-5"
       xlink:href="#linearGradient2816"
       gradientUnits="userSpaceOnUse" />
    <radialGradient
       gradientTransform="matrix(0.26458333,0,0,0.26458333,-241.32498,-197.24517)"
       cx="62.984127"
       cy="65.015877"
       r="54.179893"
       fx="62.984127"
       fy="65.015877"
       id="radialGradient2812-8-4-9"
       xlink:href="#linearGradient2794"
       gradientUnits="userSpaceOnUse" />
    <linearGradient
       gradientTransform="matrix(0.26458333,0,0,0.26458333,-242.39172,-198.3119)"
       x1="6.9292336"
       y1="121.07077"
       x2="6.9292336"
       y2="8.9609833"
       id="linearGradient2766-6-5-4"
       xlink:href="#linearGradient2760-2"
       gradientUnits="userSpaceOnUse" />
    <linearGradient
       gradientTransform="matrix(0.26458333,0,0,0.26458333,-242.5751,-197.78273)"
       x1="31.5"
       y1="63"
       x2="31.5"
       y2="12"
       id="linearGradient2822-7-8-1"
       xlink:href="#linearGradient2816-2"
       gradientUnits="userSpaceOnUse" />
    <radialGradient
       gradientTransform="matrix(0.26458333,0,0,0.26458333,-200.82029,-238.50011)"
       cx="62.984127"
       cy="65.015877"
       r="54.179893"
       fx="62.984127"
       fy="65.015877"
       id="radialGradient2812-2"
       xlink:href="#linearGradient2794"
       gradientUnits="userSpaceOnUse" />
    <linearGradient
       gradientTransform="matrix(0.26458333,0,0,0.26458333,-201.88702,-239.56685)"
       x1="6.9292336"
       y1="121.07077"
       x2="6.9292336"
       y2="8.9609833"
       id="linearGradient2766-3"
       xlink:href="#linearGradient2760"
       gradientUnits="userSpaceOnUse" />
    <linearGradient
       gradientTransform="matrix(0.26458333,0,0,0.26458333,-202.07041,-239.03768)"
       x1="31.5"
       y1="63"
       x2="31.5"
       y2="12"
       id="linearGradient2822-6"
       xlink:href="#linearGradient2816"
       gradientUnits="userSpaceOnUse" />
    <radialGradient
       gradientTransform="matrix(0.26458333,0,0,0.26458333,-241.32498,-197.24517)"
       cx="62.984127"
       cy="65.015877"
       r="54.179893"
       fx="62.984127"
       fy="65.015877"
       id="radialGradient2812-8-41-9"
       xlink:href="#linearGradient2794"
       gradientUnits="userSpaceOnUse" />
    <radialGradient
       gradientTransform="matrix(0.26458333,0,0,0.26458333,-241.32498,-197.24517)"
       cx="62.984127"
       cy="65.015877"
       r="54.179893"
       fx="62.984127"
       fy="65.015877"
       id="radialGradient2812-8-4"
       xlink:href="#linearGradient2794"
       gradientUnits="userSpaceOnUse" />
    <linearGradient
       gradientTransform="matrix(0.26458333,0,0,0.26458333,-242.39172,-198.3119)"
       x1="6.9292336"
       y1="121.07077"
       x2="6.9292336"
       y2="8.9609833"
       id="linearGradient2766-6-5"
       xlink:href="#linearGradient2760-2"
       gradientUnits="userSpaceOnUse" />
    <linearGradient
       gradientTransform="matrix(0.26458333,0,0,0.26458333,-242.5751,-197.78273)"
       x1="31.5"
       y1="63"
       x2="31.5"
       y2="12"
       id="linearGradient2822-7-8"
       xlink:href="#linearGradient2816-2"
       gradientUnits="userSpaceOnUse" />
    <radialGradient
       gradientTransform="matrix(0.26458333,0,0,0.26458333,-200.82029,-238.50011)"
       cx="62.984127"
       cy="65.015877"
       r="54.179893"
       fx="62.984127"
       fy="65.015877"
       id="radialGradient2812"
       xlink:href="#linearGradient2794"
       gradientUnits="userSpaceOnUse" />
    <linearGradient
       gradientTransform="matrix(0.26458333,0,0,0.26458333,-201.88702,-239.56685)"
       x1="6.9292336"
       y1="121.07077"
       x2="6.9292336"
       y2="8.9609833"
       id="linearGradient2766"
       xlink:href="#linearGradient2760"
       gradientUnits="userSpaceOnUse" />
    <linearGradient
       gradientTransform="matrix(0.26458333,0,0,0.26458333,-202.07041,-239.03768)"
       x1="31.5"
       y1="63"
       x2="31.5"
       y2="12"
       id="linearGradient2822"
       xlink:href="#linearGradient2816"
       gradientUnits="userSpaceOnUse" />
    <radialGradient
       gradientTransform="matrix(0.26458333,0,0,0.26458333,-241.32498,-197.24517)"
       cx="62.984127"
       cy="65.015877"
       r="54.179893"
       fx="62.984127"
       fy="65.015877"
       id="radialGradient2812-8-41"
       xlink:href="#linearGradient2794"
       gradientUnits="userSpaceOnUse" />
    <pattern
       y="0"
       x="0"
       height="6"
       width="6"
       patternUnits="userSpaceOnUse"
       id="EMFhbasepattern" />
    <radialGradient
       gradientTransform="matrix(0.26458333,0,0,0.26458333,-241.32498,-197.24517)"
       cx="62.984127"
       cy="65.015877"
       r="54.179893"
       fx="62.984127"
       fy="65.015877"
       id="radialGradient2812-8-4-1"
       xlink:href="#linearGradient2794"
       gradientUnits="userSpaceOnUse" />
    <linearGradient
       gradientTransform="matrix(0.26458333,0,0,0.26458333,-242.39172,-198.3119)"
       x1="6.9292336"
       y1="121.07077"
       x2="6.9292336"
       y2="8.9609833"
       id="linearGradient2766-6-5-6"
       xlink:href="#linearGradient2760-2"
       gradientUnits="userSpaceOnUse" />
    <linearGradient
       gradientTransform="matrix(0.26458333,0,0,0.26458333,-242.5751,-197.78273)"
       x1="31.5"
       y1="63"
       x2="31.5"
       y2="12"
       id="linearGradient2822-7-8-8"
       xlink:href="#linearGradient2816-2"
       gradientUnits="userSpaceOnUse" />
    <radialGradient
       gradientTransform="matrix(0.26458333,0,0,0.26458333,-200.82029,-238.50011)"
       cx="62.984127"
       cy="65.015877"
       r="54.179893"
       fx="62.984127"
       fy="65.015877"
       id="radialGradient2812-9"
       xlink:href="#linearGradient2794"
       gradientUnits="userSpaceOnUse" />
    <linearGradient
       gradientTransform="matrix(0.26458333,0,0,0.26458333,-201.88702,-239.56685)"
       x1="6.9292336"
       y1="121.07077"
       x2="6.9292336"
       y2="8.9609833"
       id="linearGradient2766-0"
       xlink:href="#linearGradient2760"
       gradientUnits="userSpaceOnUse" />
    <linearGradient
       gradientTransform="matrix(0.26458333,0,0,0.26458333,-202.07041,-239.03768)"
       x1="31.5"
       y1="63"
       x2="31.5"
       y2="12"
       id="linearGradient2822-0"
       xlink:href="#linearGradient2816"
       gradientUnits="userSpaceOnUse" />
    <pattern
       y="0"
       x="0"
       height="6"
       width="6"
       patternUnits="userSpaceOnUse"
       id="EMFhbasepattern-9" />
  </defs>
  <sodipodi:namedview
     id="base"
     pagecolor="#ffffff"
     bordercolor="#666666"
     borderopacity="1.0"
     inkscape:pageopacity="0.0"
     inkscape:pageshadow="2"
     inkscape:zoom="0.7"
     inkscape:cx="198.84536"
     inkscape:cy="27.584482"
     inkscape:document-units="mm"
     inkscape:current-layer="layer1"
     showgrid="false"
     fit-margin-top="0"
     fit-margin-left="0"
     fit-margin-right="0"
     fit-margin-bottom="0"
     inkscape:window-width="944"
     inkscape:window-height="832"
     inkscape:window-x="96"
     inkscape:window-y="375"
     inkscape:window-maximized="0" />
  <metadata
     id="metadata5">
    <rdf:RDF>
      <cc:Work
         rdf:about="">
        <dc:format>image/svg+xml</dc:format>
        <dc:type
           rdf:resource="http://purl.org/dc/dcmitype/StillImage" />
        <dc:title></dc:title>
      </cc:Work>
    </rdf:RDF>
  </metadata>
  <g
     inkscape:label="Layer 1"
     inkscape:groupmode="layer"
     id="layer1"
     transform="translate(-297.48179,-299.50934)">
    <path
       id="path6057"
       d="m 299.45028,306.28262 c -0.10584,0.21167 -0.1905,0.84666 -0.23284,1.84149 -0.0212,0.61383 -0.10583,1.10066 -0.25399,1.50282 -0.14817,0.40217 -0.3175,0.59266 -0.55033,0.59266 -0.27517,0 -0.48683,-0.0847 -0.67733,-0.25399 -0.16933,-0.14817 -0.254,-0.381 -0.254,-0.6985 0,-0.27516 0.0635,-0.65616 0.1905,-1.14299 0.254,-1.07949 0.55033,-3.36548 0.88899,-6.83678 0.0212,-0.14817 0.10583,-0.27517 0.254,-0.40217 0.14817,-0.127 0.29633,-0.21166 0.46566,-0.21166 0.55033,0 0.8255,0.33866 0.8255,1.03716 0,0.29633 -0.0635,0.78316 -0.1905,1.46049 -0.14817,0.76199 -0.21167,1.33349 -0.21167,1.67215 0.0212,0.0423 0.16934,0.0635 0.4445,0.0635 0.5715,0 1.39699,-0.0423 2.47648,-0.127 1.05833,-0.0847 1.62982,-0.21166 1.71449,-0.35983 0.0847,-0.14817 0.16933,-0.5715 0.254,-1.24882 0.0847,-0.6985 0.14816,-1.43933 0.14816,-2.24365 0,-0.10584 0.0847,-0.254 0.254,-0.40217 0.16933,-0.16933 0.35983,-0.254 0.5715,-0.254 0.21166,0 0.40216,0.0635 0.55033,0.21167 0.16933,0.14817 0.23283,0.33866 0.23283,0.55033 0,0.3175 -0.0635,0.86783 -0.23283,1.69332 -0.16934,0.91016 -0.3175,2.09548 -0.4445,3.53481 -0.10583,1.43932 -0.16933,2.39181 -0.16933,2.87864 0,0.21167 -0.10584,0.4445 -0.3175,0.65616 -0.21167,0.23284 -0.40216,0.33867 -0.59266,0.33867 -0.16933,0 -0.35983,-0.0635 -0.52917,-0.21167 -0.16933,-0.127 -0.25399,-0.31749 -0.25399,-0.52916 0,-0.14817 0.0635,-0.635 0.16933,-1.46049 0.127,-0.82549 0.16933,-1.37582 0.16933,-1.69332 0,-0.1905 -0.0423,-0.29633 -0.10583,-0.29633 -0.21167,0 -0.59266,0.0212 -1.16416,0.0635 -0.59266,0.0635 -0.97366,0.0847 -1.18532,0.0847 -0.16934,0 -0.5715,0.0212 -1.22766,0.0635 -0.635,0.0423 -0.97366,0.0847 -1.01599,0.127 z"
       style="fill:#000000;fill-opacity:1;fill-rule:nonzero;stroke:none;stroke-width:0.26458332"
       inkscape:connector-curvature="0" />
    <path
       id="path6059"
       d="m 311.02836,300.50417 c 0,0.29633 -0.127,0.57149 -0.40217,0.78316 -0.27516,0.23283 -0.48683,0.33866 -0.69849,0.33866 -0.23283,0 -0.46567,-0.10583 -0.65616,-0.3175 -0.1905,-0.21166 -0.29634,-0.40216 -0.29634,-0.61383 0,-0.29633 0.10584,-0.55032 0.29634,-0.71966 0.19049,-0.1905 0.46566,-0.29633 0.82549,-0.29633 0.27516,0 0.48683,0.0847 0.67733,0.254 0.16933,0.16933 0.254,0.35983 0.254,0.5715 z m -3.00565,5.14346 v 0 c 0.127,-0.762 0.1905,-1.18533 0.1905,-1.29116 0,-0.3175 0.0635,-0.5715 0.1905,-0.78316 0.14816,-0.21167 0.33866,-0.3175 0.57149,-0.3175 0.29634,0 0.508,0.0847 0.67733,0.21167 0.14817,0.127 0.23283,0.27516 0.23283,0.44449 0,0.16934 -0.0847,0.508 -0.23283,1.03716 l -0.0423,0.127 c -0.23283,0.80433 -0.35983,1.46049 -0.40216,1.96849 -0.0635,0.50799 -0.0847,0.91016 -0.0847,1.22766 0,0.25399 0.0423,0.59266 0.14817,1.01599 0,0.0847 0,0.127 0,0.1905 0,0.0847 -0.0847,0.21166 -0.27517,0.38099 -0.16933,0.16934 -0.35983,0.254 -0.57149,0.254 -0.55033,0 -0.8255,-0.42333 -0.8255,-1.24882 0,-0.71966 0.10583,-1.56632 0.29633,-2.58232 0.0423,-0.23283 0.0847,-0.44449 0.127,-0.63499 z"
       style="fill:#000000;fill-opacity:1;fill-rule:nonzero;stroke:none;stroke-width:0.26458332"
       inkscape:connector-curvature="0" />
    <path
       id="path6061"
       d="m 315.51566,307.87011 c -0.46567,0.52916 -0.99483,0.95249 -1.62982,1.29116 -0.59267,0.3175 -1.12183,0.48683 -1.56633,0.48683 -0.44449,0 -0.78316,-0.127 -1.03716,-0.381 -0.23283,-0.254 -0.35983,-0.61383 -0.35983,-1.05832 0,-0.65617 0.23284,-1.37583 0.71967,-2.15899 0.50799,-0.78316 1.18532,-1.48165 2.03198,-2.05315 0.86783,-0.59266 1.65099,-0.88899 2.34948,-0.88899 0.381,0 0.71966,0.10583 0.99483,0.31749 0.0635,0.0423 0.127,0.0847 0.16933,0.127 0.10583,0.0635 0.1905,0.1905 0.27517,0.381 0.0847,0.1905 0.12699,0.33866 0.12699,0.46566 0,0.0847 -0.0635,0.3175 -0.23283,0.762 -0.14816,0.44449 -0.27516,0.86782 -0.33866,1.29116 -0.0635,0.42333 -0.1905,1.46048 -0.381,3.13264 -0.16933,1.43932 -0.57149,2.49765 -1.20649,3.17498 -0.65616,0.65616 -1.35466,0.99482 -2.13782,0.99482 -0.82549,0 -1.60865,-0.27516 -2.39181,-0.82549 -0.762,-0.55033 -1.14299,-0.99483 -1.14299,-1.35466 0,-0.3175 0.14816,-0.48683 0.44449,-0.48683 0.127,0 0.381,0.127 0.74083,0.35983 0.95249,0.635 1.75682,0.95249 2.43415,0.95249 0.52916,0 0.95249,-0.33866 1.31232,-0.97366 0.33867,-0.65616 0.61383,-1.84148 0.8255,-3.55597 z m 0.14816,-3.47131 c -0.3175,0 -0.71966,0.1905 -1.20649,0.55033 -0.508,0.381 -0.97366,0.86783 -1.39699,1.50283 -0.42333,0.61382 -0.63499,1.14299 -0.63499,1.54515 0,0.21167 0.0847,0.3175 0.23283,0.3175 0.55033,0 1.07949,-0.21167 1.60865,-0.635 0.52917,-0.44449 0.9525,-0.95249 1.26999,-1.50282 0.33867,-0.5715 0.508,-0.99483 0.508,-1.29116 0,-0.14816 -0.0423,-0.25399 -0.127,-0.35983 -0.0635,-0.0847 -0.14817,-0.127 -0.254,-0.127 z"
       style="fill:#000000;fill-opacity:1;fill-rule:nonzero;stroke:none;stroke-width:0.26458332"
       inkscape:connector-curvature="0" />
    <path
       id="path6063"
       d="m 319.96062,306.89645 c 0.6985,-1.29116 1.29116,-2.15898 1.77799,-2.62465 0.508,-0.46566 1.01599,-0.69849 1.52399,-0.69849 0.35983,0 0.65616,0.10583 0.88899,0.35983 0.23283,0.23283 0.40217,0.86783 0.508,1.88382 0.0423,0.48683 0.10583,0.88899 0.1905,1.18532 0.0635,0.29634 0.14816,0.5715 0.23283,0.80433 0.0847,0.23283 0.21166,0.4445 0.35983,0.635 0.127,0.16933 0.1905,0.33866 0.1905,0.48683 0,0.14816 -0.0635,0.27516 -0.21167,0.40216 -0.14816,0.127 -0.31749,0.1905 -0.48683,0.1905 -0.38099,0 -0.69849,-0.21167 -0.99482,-0.61383 -0.27517,-0.40216 -0.46567,-0.95249 -0.508,-1.67215 -0.0635,-0.86783 -0.14816,-1.41816 -0.21166,-1.65099 -0.0847,-0.254 -0.21167,-0.35983 -0.381,-0.35983 -0.254,0 -0.71966,0.46566 -1.41816,1.43932 -0.69849,0.95249 -1.18532,1.73565 -1.50282,2.30715 -0.1905,0.4445 -0.33866,0.71966 -0.4445,0.84666 -0.10583,0.127 -0.23283,0.1905 -0.38099,0.1905 -0.254,0 -0.46567,-0.0635 -0.61383,-0.1905 -0.16933,-0.127 -0.23283,-0.29633 -0.23283,-0.52916 0,-0.10584 0.0423,-0.46567 0.14816,-1.05833 0.42333,-2.22248 0.78316,-4.59313 1.05833,-7.11195 0.0635,-0.61382 0.1905,-1.03715 0.38099,-1.26999 0.1905,-0.23283 0.35984,-0.33866 0.508,-0.33866 0.23283,0 0.42333,0.0847 0.5715,0.254 0.16933,0.16933 0.25399,0.40216 0.25399,0.71966 0,0.46566 -0.0635,0.99483 -0.16933,1.60865 -0.10583,0.59267 -0.3175,1.56633 -0.63499,2.89982 -0.1905,0.80432 -0.3175,1.43932 -0.40217,1.90498 z"
       style="fill:#000000;fill-opacity:1;fill-rule:nonzero;stroke:none;stroke-width:0.26458332"
       inkscape:connector-curvature="0" />
    <path
       id="path6065"
       d="m 332.78753,309.7116 c 0,-0.27517 -0.14817,-0.86783 -0.48683,-1.75682 -0.67733,-1.79916 -1.01599,-3.06915 -1.01599,-3.83114 0,-0.67733 0.27516,-1.03716 0.80432,-1.03716 0.52917,0 0.80433,0.3175 0.80433,0.95249 0,0.381 0,0.67733 0.0212,0.84666 0.0212,0.16934 0.0847,0.46567 0.1905,0.91016 0.10583,0.4445 0.21166,0.80433 0.31749,1.10066 0.0635,0.1905 0.14817,0.42333 0.23284,0.6985 0.0423,0.1905 0.10583,0.31749 0.12699,0.38099 0.0212,-0.0423 0.127,-0.19049 0.27517,-0.48683 0.0847,-0.16933 0.381,-0.67732 0.88899,-1.48165 0.48683,-0.8255 0.93133,-1.48166 1.31232,-1.96849 0.381,-0.46566 0.65617,-0.78316 0.84667,-0.88899 0.1905,-0.10583 0.38099,-0.14817 0.59266,-0.14817 0.23283,0 0.40216,0.0635 0.52916,0.21167 0.14817,0.127 0.21167,0.3175 0.21167,0.508 0,0.25399 -0.16933,0.48683 -0.508,0.71966 -0.33866,0.23283 -0.80433,0.76199 -1.39699,1.58748 -0.59266,0.8255 -1.22766,1.88382 -1.90499,3.13265 -0.38099,0.71966 -0.71966,1.07949 -1.03715,1.07949 -0.254,0 -0.52917,-0.16933 -0.80433,-0.52916 z"
       style="fill:#000000;fill-opacity:1;fill-rule:nonzero;stroke:none;stroke-width:0.26458332"
       inkscape:connector-curvature="0" />
    <path
       id="path6067"
       d="m 342.88395,307.70078 c -1.10065,1.43932 -2.15898,2.15898 -3.17497,2.15898 -0.381,0 -0.6985,-0.14816 -0.97366,-0.44449 -0.27517,-0.29633 -0.40216,-0.67733 -0.40216,-1.12183 0,-1.12182 0.48682,-2.28598 1.48165,-3.53481 0.97366,-1.24882 1.96849,-1.86265 2.96331,-1.86265 0.508,0 0.84666,0.254 0.99483,0.762 0.48683,0 0.71966,0.19049 0.71966,0.55033 0,0.16933 -0.0423,0.48682 -0.14817,0.95249 -0.14816,0.84666 -0.23283,1.54515 -0.23283,2.05315 0,0.52916 0.0212,0.91016 0.10583,1.12182 0.0635,0.21167 0.127,0.35984 0.14817,0.42333 0.0423,0.0635 0.14816,0.127 0.29633,0.21167 0.16933,0.0847 0.254,0.1905 0.254,0.33866 0,0.21167 -0.10584,0.381 -0.3175,0.52917 -0.21166,0.127 -0.4445,0.21166 -0.67733,0.21166 -0.78316,0 -1.12182,-0.78316 -1.03716,-2.34948 z m -0.38099,-3.47131 c -0.42333,0 -0.97366,0.46566 -1.65099,1.39699 -0.65616,0.93133 -0.99483,1.71449 -0.99483,2.37065 0,0.33866 0.0635,0.508 0.21167,0.508 0.48683,0 1.10066,-0.4445 1.79915,-1.31233 0.71966,-0.86782 1.07949,-1.62982 1.07949,-2.28598 0,-0.21167 -0.0423,-0.35983 -0.127,-0.48683 -0.10583,-0.127 -0.21166,-0.1905 -0.31749,-0.1905 z"
       style="fill:#000000;fill-opacity:1;fill-rule:nonzero;stroke:none;stroke-width:0.26458332"
       inkscape:connector-curvature="0" />
    <path
       id="path6069"
       d="m 347.92158,310.11376 c -0.67732,0 -1.20649,-0.16933 -1.56632,-0.55033 -0.35983,-0.381 -0.52916,-0.88899 -0.52916,-1.56632 0,-1.03716 0.42333,-2.18015 1.26999,-3.38664 0.86783,-1.22766 1.69332,-1.84149 2.51881,-1.84149 0.381,0 0.71967,0.21167 0.99483,0.59266 0.29633,0.40217 0.42333,0.80433 0.42333,1.22766 0,0.40217 -0.0635,0.67733 -0.21166,0.80433 -0.14817,0.14817 -0.29634,0.21166 -0.42333,0.21166 -0.40217,0 -0.65617,-0.27516 -0.71967,-0.82549 -0.0423,-0.42333 -0.14816,-0.61383 -0.29633,-0.61383 -0.31749,0 -0.76199,0.46567 -1.29116,1.37583 -0.52916,0.93132 -0.80432,1.73565 -0.80432,2.43414 0,0.55033 0.3175,0.84666 0.91016,0.84666 0.67733,0 1.35465,-0.25399 2.03198,-0.71966 0.3175,-0.23283 0.5715,-0.33866 0.762,-0.33866 0.23283,0 0.33866,0.10583 0.33866,0.33866 0,0.3175 -0.35983,0.74083 -1.10066,1.24883 -0.71966,0.50799 -1.50282,0.76199 -2.30715,0.76199 z"
       style="fill:#000000;fill-opacity:1;fill-rule:nonzero;stroke:none;stroke-width:0.26458332"
       inkscape:connector-curvature="0" />
    <path
       id="path6071"
       d="m 356.93852,307.48911 c -0.40217,0.74083 -0.86783,1.31233 -1.39699,1.73566 -0.52917,0.44449 -1.05833,0.65616 -1.58749,0.65616 -0.3175,0 -0.65616,-0.16933 -0.97366,-0.508 -0.3175,-0.33866 -0.48683,-0.86782 -0.48683,-1.56632 0,-0.48683 0.127,-1.22766 0.381,-2.22248 0.21166,-0.8255 0.31749,-1.46049 0.31749,-1.88382 0.16934,-0.35983 0.42333,-0.52916 0.78317,-0.52916 0.23283,0 0.42333,0.0847 0.57149,0.25399 0.14817,0.14817 0.21167,0.3175 0.21167,0.46567 0,0.29633 -0.10584,0.71966 -0.3175,1.26999 -0.10583,0.3175 -0.254,0.78316 -0.381,1.37582 -0.14816,0.59266 -0.21166,0.97366 -0.21166,1.14299 0,0.55033 0.10583,0.8255 0.33866,0.8255 0.35983,0 0.84666,-0.35983 1.48166,-1.03716 0.61382,-0.6985 1.01599,-1.41816 1.18532,-2.13782 0.1905,-0.71966 0.35983,-1.18532 0.508,-1.39699 0.14816,-0.23283 0.35983,-0.33866 0.61383,-0.33866 0.44449,0 0.65616,0.25399 0.65616,0.71966 0,0.0847 -0.0423,0.21166 -0.10584,0.42333 -0.25399,0.74083 -0.38099,1.56632 -0.38099,2.49765 0,1.07949 0.1905,1.73565 0.55033,1.94731 0.12699,0.0635 0.19049,0.14817 0.19049,0.254 0,0.14817 -0.10583,0.29633 -0.31749,0.42333 -0.21167,0.127 -0.42333,0.21167 -0.61383,0.21167 -0.3175,0 -0.5715,-0.23283 -0.762,-0.6985 -0.16933,-0.46566 -0.25399,-1.10065 -0.25399,-1.88382 z"
       style="fill:#000000;fill-opacity:1;fill-rule:nonzero;stroke:none;stroke-width:0.26458332"
       inkscape:connector-curvature="0" />
    <path
       id="path6073"
       d="m 364.68546,307.48911 c -0.381,0.74083 -0.84666,1.31233 -1.37582,1.73566 -0.52917,0.44449 -1.05833,0.65616 -1.60866,0.65616 -0.3175,0 -0.63499,-0.16933 -0.97366,-0.508 -0.3175,-0.33866 -0.48683,-0.86782 -0.48683,-1.56632 0,-0.48683 0.127,-1.22766 0.381,-2.22248 0.21167,-0.8255 0.3175,-1.46049 0.3175,-1.88382 0.16933,-0.35983 0.44449,-0.52916 0.78316,-0.52916 0.25399,0 0.44449,0.0847 0.57149,0.25399 0.14817,0.14817 0.23284,0.3175 0.23284,0.46567 0,0.29633 -0.10584,0.71966 -0.3175,1.26999 -0.127,0.3175 -0.254,0.78316 -0.40217,1.37582 -0.127,0.59266 -0.1905,0.97366 -0.1905,1.14299 0,0.55033 0.10584,0.8255 0.33867,0.8255 0.35983,0 0.84666,-0.35983 1.46049,-1.03716 0.61383,-0.6985 1.01599,-1.41816 1.20649,-2.13782 0.1905,-0.71966 0.35983,-1.18532 0.48683,-1.39699 0.14816,-0.23283 0.35983,-0.33866 0.63499,-0.33866 0.42334,0 0.635,0.25399 0.635,0.71966 0,0.0847 -0.0212,0.21166 -0.10583,0.42333 -0.23283,0.74083 -0.35983,1.56632 -0.35983,2.49765 0,1.07949 0.1905,1.73565 0.55033,1.94731 0.127,0.0635 0.16933,0.14817 0.16933,0.254 0,0.14817 -0.10583,0.29633 -0.3175,0.42333 -0.21166,0.127 -0.40216,0.21167 -0.59266,0.21167 -0.33867,0 -0.59266,-0.23283 -0.762,-0.6985 -0.16933,-0.46566 -0.27516,-1.10065 -0.27516,-1.88382 z"
       style="fill:#000000;fill-opacity:1;fill-rule:nonzero;stroke:none;stroke-width:0.26458332"
       inkscape:connector-curvature="0" />
    <path
       id="path6075"
       d="m 369.70192,309.41527 c -0.0423,0.42333 -0.27516,0.63499 -0.71966,0.63499 -0.52916,0 -0.80433,-0.381 -0.80433,-1.16416 0,-1.29115 0.0635,-2.37065 0.21167,-3.28081 0.10583,-0.69849 0.14816,-1.37582 0.14816,-2.05315 0,-0.16933 0.0635,-0.29633 0.16934,-0.42333 0.0847,-0.10583 0.23283,-0.14816 0.42332,-0.14816 0.635,0 0.93133,0.35983 0.93133,1.12182 0,0.254 -0.10583,0.86783 -0.31749,1.88382 -0.127,0.59266 -0.21167,1.03716 -0.21167,1.29116 1.20649,-2.60348 2.26482,-3.91581 3.21731,-3.91581 0.40216,0 0.69849,0.16934 0.93133,0.46567 0.23283,0.3175 0.35983,0.99482 0.38099,2.05315 0,0.95249 0.0423,1.43932 0.14817,1.43932 0.0635,0 0.33866,-0.46566 0.78316,-1.39699 0.48683,-1.03716 0.91016,-1.71448 1.24882,-2.05315 0.35983,-0.33866 0.74083,-0.508 1.12183,-0.508 0.46566,0 0.78316,0.21167 0.99483,0.61383 0.21166,0.381 0.35983,1.05833 0.44449,2.01082 0.0635,0.74083 0.14817,1.31233 0.254,1.69332 0.10583,0.381 0.27516,0.635 0.55033,0.762 0.1905,0.0847 0.29633,0.23283 0.29633,0.44449 0,0.16934 -0.10583,0.35983 -0.33867,0.52917 -0.25399,0.1905 -0.48682,0.27516 -0.74082,0.27516 -0.42333,0 -0.74083,-0.21166 -0.99483,-0.61383 -0.23283,-0.42333 -0.40216,-1.26999 -0.46566,-2.51881 -0.0635,-0.61383 -0.10583,-1.01599 -0.16933,-1.20649 -0.0423,-0.21167 -0.127,-0.29633 -0.21167,-0.29633 -0.10583,0 -0.23283,0.14816 -0.40216,0.44449 -0.1905,0.29633 -0.48683,0.889 -0.91016,1.77799 -0.381,0.78316 -0.6985,1.35466 -0.97366,1.65099 -0.27517,0.31749 -0.5715,0.48683 -0.889,0.48683 -0.23283,0 -0.46566,-0.10584 -0.71966,-0.3175 -0.23283,-0.21167 -0.38099,-0.95249 -0.40216,-2.26482 -0.0212,-1.16416 -0.0847,-1.73565 -0.21167,-1.73565 -0.16933,0 -0.59266,0.50799 -1.26999,1.54515 -0.65616,1.03716 -1.16415,1.94732 -1.50282,2.77282 z"
       style="fill:#000000;fill-opacity:1;fill-rule:nonzero;stroke:none;stroke-width:0.26458332"
       inkscape:connector-curvature="0" />
    <path
       id="path6077"
       d="m 390.21227,307.87011 c -0.4445,0.52916 -0.99483,0.95249 -1.60865,1.29116 -0.61383,0.3175 -1.143,0.48683 -1.58749,0.48683 -0.4445,0 -0.78316,-0.127 -1.016,-0.381 -0.25399,-0.254 -0.38099,-0.61383 -0.38099,-1.05832 0,-0.65617 0.254,-1.37583 0.74082,-2.15899 0.48684,-0.78316 1.16416,-1.48165 2.03199,-2.05315 0.86783,-0.59266 1.65099,-0.88899 2.34948,-0.88899 0.381,0 0.6985,0.10583 0.99483,0.31749 0.0635,0.0423 0.127,0.0847 0.16933,0.127 0.10583,0.0635 0.1905,0.1905 0.27517,0.381 0.0847,0.1905 0.127,0.33866 0.127,0.46566 0,0.0847 -0.0847,0.3175 -0.23284,0.762 -0.16933,0.44449 -0.27516,0.86782 -0.33866,1.29116 -0.0635,0.42333 -0.1905,1.46048 -0.381,3.13264 -0.16933,1.43932 -0.59266,2.49765 -1.22766,3.17498 -0.63499,0.65616 -1.35465,0.99482 -2.13781,0.99482 -0.80433,0 -1.60866,-0.27516 -2.37065,-0.82549 -0.78316,-0.55033 -1.16416,-0.99483 -1.16416,-1.35466 0,-0.3175 0.14816,-0.48683 0.46566,-0.48683 0.127,0 0.35983,0.127 0.74083,0.35983 0.93133,0.635 1.75682,0.95249 2.43415,0.95249 0.508,0 0.95249,-0.33866 1.29116,-0.97366 0.35983,-0.65616 0.63499,-1.84148 0.82549,-3.55597 z m 0.14817,-3.47131 c -0.29634,0 -0.6985,0.1905 -1.2065,0.55033 -0.48682,0.381 -0.95249,0.86783 -1.37582,1.50283 -0.42333,0.61382 -0.63499,1.14299 -0.63499,1.54515 0,0.21167 0.0847,0.3175 0.23283,0.3175 0.52916,0 1.05832,-0.21167 1.58749,-0.635 0.52916,-0.44449 0.95249,-0.95249 1.29115,-1.50282 0.3175,-0.5715 0.48683,-0.99483 0.48683,-1.29116 0,-0.14816 -0.0423,-0.25399 -0.10583,-0.35983 -0.0847,-0.0847 -0.16933,-0.127 -0.27516,-0.127 z"
       style="fill:#000000;fill-opacity:1;fill-rule:nonzero;stroke:none;stroke-width:0.26458332"
       inkscape:connector-curvature="0" />
    <path
       id="path6079"
       d="m 394.8054,306.68479 0.10583,-0.1905 c 0.508,-1.01599 1.05833,-1.84149 1.62983,-2.45532 0.59266,-0.63499 1.14299,-0.95249 1.71448,-0.95249 0.42333,0 0.762,0.10583 1.016,0.33866 0.27516,0.23284 0.42333,0.508 0.42333,0.84666 0,0.1905 -0.0635,0.35984 -0.14817,0.508 -0.0847,0.14817 -0.21166,0.21167 -0.381,0.21167 -0.25399,0 -0.48683,-0.10584 -0.69849,-0.3175 -0.14817,-0.14817 -0.27517,-0.21167 -0.35983,-0.21167 -0.3175,0 -0.82549,0.48683 -1.56632,1.46049 -0.71966,0.97366 -1.16416,2.05315 -1.31233,3.25964 -0.0635,0.35984 -0.14816,0.59267 -0.3175,0.74083 -0.14816,0.127 -0.35983,0.21167 -0.63499,0.21167 -0.29633,0 -0.48683,-0.16933 -0.61383,-0.48683 -0.127,-0.33867 -0.1905,-0.86783 -0.1905,-1.60866 0,-0.29633 0.0212,-0.71966 0.0423,-1.22765 0,-0.48683 0.0635,-1.0795 0.127,-1.77799 0.0212,-0.1905 0.0423,-0.33867 0.0423,-0.4445 0.0423,-0.40216 0.0847,-0.67733 0.127,-0.82549 0.0635,-0.14817 0.16933,-0.29633 0.33866,-0.42333 0.16933,-0.14817 0.381,-0.21167 0.59266,-0.21167 0.21167,0 0.381,0.0635 0.508,0.1905 0.10583,0.127 0.16933,0.27517 0.16933,0.42333 0,0.21167 -0.0847,0.61383 -0.27516,1.22766 -0.0635,0.21166 -0.127,0.46566 -0.16934,0.76199 z"
       style="fill:#000000;fill-opacity:1;fill-rule:nonzero;stroke:none;stroke-width:0.26458332"
       inkscape:connector-curvature="0" />
    <path
       id="path6081"
       d="m 405.64265,306.62129 c -0.29633,0.97366 -0.82549,1.79915 -1.58748,2.45531 -0.78316,0.67733 -1.56632,0.99483 -2.34949,0.99483 -0.61382,0 -1.12182,-0.21167 -1.52399,-0.65616 -0.38099,-0.46567 -0.59266,-1.016 -0.59266,-1.67216 0,-1.07949 0.35983,-2.13782 1.10066,-3.17497 0.74083,-1.03716 1.62982,-1.54516 2.66698,-1.54516 0.6985,0 1.29116,0.254 1.71449,0.78316 0.4445,0.52916 0.67733,1.14299 0.67733,1.88382 0,0.3175 -0.0423,0.61383 -0.10584,0.93133 z m -3.25964,-1.96849 c -0.27516,0.254 -0.57149,0.65616 -0.84666,1.22766 -0.27516,0.5715 -0.42333,1.14299 -0.42333,1.71449 0,0.33866 0.0635,0.61383 0.1905,0.84666 0.127,0.23283 0.29633,0.33866 0.508,0.33866 0.50799,0 1.05832,-0.3175 1.60865,-0.93132 0.55033,-0.59267 0.84666,-1.29116 0.84666,-2.05316 0,-0.42333 -0.10583,-0.78316 -0.27516,-1.05832 -0.1905,-0.27517 -0.4445,-0.40217 -0.762,-0.40217 -0.31749,0 -0.59266,0.10584 -0.82549,0.3175 z"
       style="fill:#000000;fill-opacity:1;fill-rule:nonzero;stroke:none;stroke-width:0.26458332"
       inkscape:connector-curvature="0" />
    <path
       id="path6083"
       d="m 411.33645,307.48911 c -0.40217,0.74083 -0.86783,1.31233 -1.37583,1.73566 -0.52916,0.44449 -1.05832,0.65616 -1.60865,0.65616 -0.3175,0 -0.635,-0.16933 -0.97366,-0.508 -0.3175,-0.33866 -0.48683,-0.86782 -0.48683,-1.56632 0,-0.48683 0.127,-1.22766 0.381,-2.22248 0.21166,-0.8255 0.3175,-1.46049 0.3175,-1.88382 0.16933,-0.35983 0.42333,-0.52916 0.78316,-0.52916 0.23283,0 0.42332,0.0847 0.57149,0.25399 0.14817,0.14817 0.21167,0.3175 0.21167,0.46567 0,0.29633 -0.10584,0.71966 -0.29634,1.26999 -0.12699,0.3175 -0.25399,0.78316 -0.40216,1.37582 -0.127,0.59266 -0.21166,0.97366 -0.21166,1.14299 0,0.55033 0.127,0.8255 0.35983,0.8255 0.35983,0 0.84666,-0.35983 1.46049,-1.03716 0.61382,-0.6985 1.01599,-1.41816 1.20649,-2.13782 0.1905,-0.71966 0.33866,-1.18532 0.48683,-1.39699 0.14816,-0.23283 0.35983,-0.33866 0.61382,-0.33866 0.4445,0 0.65617,0.25399 0.65617,0.71966 0,0.0847 -0.0423,0.21166 -0.10583,0.42333 -0.254,0.74083 -0.35984,1.56632 -0.35984,2.49765 0,1.07949 0.16934,1.73565 0.55033,1.94731 0.10584,0.0635 0.16934,0.14817 0.16934,0.254 0,0.14817 -0.10584,0.29633 -0.3175,0.42333 -0.21167,0.127 -0.40217,0.21167 -0.59267,0.21167 -0.33866,0 -0.59266,-0.23283 -0.76199,-0.6985 -0.1905,-0.46566 -0.27516,-1.10065 -0.27516,-1.88382 z"
       style="fill:#000000;fill-opacity:1;fill-rule:nonzero;stroke:none;stroke-width:0.26458332"
       inkscape:connector-curvature="0" />
    <path
       id="path6085"
       d="m 416.16241,309.3306 c -0.0847,0.29633 -0.14817,0.74083 -0.21167,1.33349 l -0.29633,2.45532 c -0.0635,0.38099 -0.14816,0.65616 -0.29633,0.82549 -0.14816,0.14817 -0.31749,0.23283 -0.52916,0.23283 -0.1905,0 -0.35983,-0.0847 -0.52916,-0.21166 -0.16934,-0.14817 -0.254,-0.29633 -0.254,-0.46567 0,-0.33866 0.0423,-0.71966 0.14816,-1.16415 0.61384,-2.47649 0.9525,-5.03763 1.016,-7.70461 v -0.127 c 0,-0.55033 0.0212,-0.93133 0.0423,-1.10066 0.0423,-0.1905 0.127,-0.35983 0.27517,-0.508 0.14816,-0.127 0.35983,-0.21166 0.63499,-0.21166 0.4445,0 0.67733,0.35983 0.67733,1.03716 0,0.29633 -0.0635,0.78316 -0.16933,1.46048 l -0.0635,0.42333 c 0.48683,-0.78316 1.03716,-1.43932 1.69332,-1.96848 0.65616,-0.52916 1.24882,-0.78316 1.75682,-0.78316 0.46566,0 0.86782,0.16933 1.18532,0.48683 0.33867,0.33866 0.48683,0.76199 0.48683,1.26999 0,1.33349 -0.50799,2.56115 -1.56632,3.66181 -1.03716,1.10065 -2.05315,1.65098 -3.06914,1.65098 -0.48683,0 -0.80433,-0.1905 -0.93133,-0.59266 z m 3.66181,-5.0588 c -0.508,0 -1.16416,0.48683 -1.98965,1.48166 -0.80433,0.99483 -1.2065,1.75682 -1.2065,2.32832 0,0.14816 0.0635,0.27516 0.21167,0.40216 0.14816,0.10583 0.3175,0.16933 0.50799,0.16933 0.52917,0 1.12183,-0.42333 1.82032,-1.24882 0.67733,-0.8255 1.016,-1.62982 1.016,-2.41298 0,-0.254 -0.0423,-0.4445 -0.10583,-0.55033 -0.0847,-0.10584 -0.16934,-0.16934 -0.254,-0.16934 z"
       style="fill:#000000;fill-opacity:1;fill-rule:nonzero;stroke:none;stroke-width:0.26458332"
       inkscape:connector-curvature="0" />
  </g>
</svg>
